<svg width="380" height="240" viewBox="0 0 380 240" fill="none" xmlns="http://www.w3.org/2000/svg">
<g clip-path="url(#clip0_17_483)">
<rect y="0.908447" width="380" height="239" rx="48" fill="url(#paint0_linear_17_483)"/>
<g opacity="0.75">
<path opacity="0.1" d="M242.831 -31.4525L371.137 44.9179V174.046L242.831 96.9842V-31.4525Z" fill="white"/>
<path opacity="0.2" d="M498.993 -31.3751L370.691 44.9152V173.908L498.993 96.9269V-31.3751Z" fill="white"/>
<path opacity="0.3" d="M242.831 -31.0295L371.137 -108.092L499.442 -31.0295V-30.4532L371.137 46.6088L242.831 -30.4532V-31.0295Z" fill="white"/>
<path opacity="0.1" d="M-119 41.8018L9.30562 118.172V247.3L-119 170.238V41.8018Z" fill="white"/>
<path opacity="0.2" d="M137.162 41.8792L8.85962 118.169V247.162L137.162 170.181V41.8792Z" fill="white"/>
<path opacity="0.3" d="M-119 42.2247L9.30562 -34.8373L137.611 42.2247V42.8011L9.30562 119.863L-119 42.8011V42.2247Z" fill="white"/>
<path opacity="0.1" d="M189.111 0.669586L242.609 32.5126V86.3533L189.111 54.2219V0.669586Z" fill="white"/>
<path opacity="0.2" d="M295.919 0.70166L242.423 32.5113V86.2955L295.919 54.1978V0.70166Z" fill="white"/>
<path opacity="0.3" d="M189.111 0.845745L242.609 -31.2856L296.106 0.845745V1.08607L242.609 33.2175L189.111 1.08607V0.845745Z" fill="white"/>
<path opacity="0.1" d="M233.951 206.225L287.449 238.068V291.908L233.951 259.777V206.225Z" fill="white"/>
<path opacity="0.2" d="M340.759 206.257L287.263 238.066V291.851L340.759 259.753V206.257Z" fill="white"/>
<path opacity="0.3" d="M233.951 206.401L287.449 174.269L340.947 206.401V206.641L287.449 238.773L233.951 206.641V206.401Z" fill="white"/>
</g>
<path fill-rule="evenodd" clip-rule="evenodd" d="M314.896 36.7618C314.541 37.3024 314.362 37.9396 314.383 38.5861L314.381 38.5836C314.381 40.5041 315.597 41.4647 317.163 41.4703C317.744 41.5035 318.324 41.3993 318.856 41.1657C319.389 40.9321 319.859 40.5756 320.228 40.1258C320.505 40.5988 320.867 41.0171 321.295 41.3594C321.365 41.397 321.443 41.4133 321.522 41.4056C321.6 41.3979 321.675 41.3666 321.735 41.3163L321.738 41.3192C322.111 40.9939 322.784 40.4057 323.162 40.0927C323.194 40.0612 323.22 40.0235 323.239 39.9818C323.257 39.9401 323.267 39.8952 323.267 39.8498C323.268 39.8043 323.26 39.7591 323.243 39.7168C323.227 39.6745 323.201 39.636 323.17 39.6034C322.73 39.1407 322.482 38.5289 322.474 37.8905V35.0098C322.474 34.9153 322.474 34.8213 322.475 34.7281V34.728V34.7279V34.7278L322.475 34.7256C322.481 33.6176 322.486 32.605 321.653 31.8305C320.86 31.1987 319.866 30.8727 318.853 30.9116C317.084 30.9116 315.106 31.5647 314.695 33.7381C314.686 33.7819 314.686 33.8273 314.695 33.8711C314.705 33.9149 314.723 33.9561 314.748 33.9925C314.774 34.0289 314.808 34.0599 314.846 34.0829C314.884 34.1058 314.927 34.1203 314.972 34.126L316.772 34.3182C316.856 34.3046 316.933 34.2643 316.992 34.2033C317.05 34.1424 317.087 34.0639 317.098 33.98C317.17 33.6451 317.362 33.3484 317.636 33.1443C317.911 32.9403 318.251 32.8434 318.592 32.8714C318.791 32.8617 318.99 32.9005 319.171 32.9843C319.352 33.068 319.51 33.194 319.633 33.3521C319.839 33.7652 319.918 34.2304 319.861 34.6886V34.924C319.684 34.9442 319.499 34.9632 319.308 34.9827L319.307 34.9827C318.332 35.0826 317.209 35.1977 316.364 35.5664C315.764 35.8038 315.25 36.2212 314.896 36.7618ZM290.516 36.7648C290.162 37.3049 289.982 37.9414 290.001 38.5876V38.5871C290.001 40.5055 291.221 41.4647 292.786 41.4704C293.367 41.504 293.948 41.3998 294.481 41.1662C295.014 40.9326 295.484 40.5759 295.853 40.1259C296.13 40.5993 296.491 41.0177 296.92 41.3595C296.989 41.3977 297.067 41.4145 297.145 41.4071C297.224 41.3997 297.298 41.3683 297.359 41.3178L297.365 41.3208C297.735 40.995 298.408 40.4083 298.79 40.0943C298.822 40.0623 298.848 40.0243 298.866 39.9823C298.884 39.9403 298.893 39.8954 298.893 39.8498C298.894 39.8042 298.885 39.7586 298.868 39.7163C298.851 39.6741 298.826 39.6358 298.793 39.6034C298.352 39.1418 298.102 38.5297 298.094 37.8905V35.0098C298.094 34.9123 298.094 34.8154 298.095 34.7193C298.101 33.6138 298.107 32.6035 297.276 31.8305C296.482 31.1986 295.488 30.8726 294.474 30.9116C292.705 30.9116 290.732 31.5648 290.316 33.7381C290.307 33.7818 290.308 33.8271 290.317 33.8706C290.326 33.9141 290.344 33.9552 290.37 33.9916C290.396 34.0278 290.429 34.0582 290.467 34.0814C290.505 34.1046 290.547 34.1198 290.591 34.126L292.399 34.3182C292.482 34.3037 292.558 34.2632 292.615 34.2023C292.673 34.1415 292.71 34.0633 292.72 33.98C292.793 33.6452 292.985 33.3483 293.26 33.1444C293.535 32.9404 293.875 32.8436 294.216 32.8714C294.416 32.862 294.614 32.9006 294.795 32.9843C294.977 33.068 295.135 33.1942 295.258 33.3521C295.462 33.7658 295.54 34.2308 295.483 34.6886V34.9265C295.301 34.9477 295.11 34.9675 294.913 34.9879H294.913C293.942 35.0885 292.826 35.2042 291.985 35.5704C291.384 35.8076 290.872 36.2248 290.516 36.7648ZM336.799 30.9973C334.109 30.9973 332.618 33.2939 332.617 36.2428C332.618 39.1762 334.089 41.5309 336.799 41.533C339.402 41.533 341.052 39.2375 341.052 36.3452C341.059 33.3516 339.562 30.9973 336.799 30.9973ZM327.805 47.2835C328.229 46.2392 329.17 43.8957 328.726 43.3263C328.289 42.7667 325.861 43.0491 324.711 43.1829L324.652 43.1898C324.309 43.2304 324.259 42.9328 324.565 42.72C326.562 41.3268 329.835 41.7294 330.215 42.1981C330.594 42.6668 330.118 45.9332 328.24 47.4863C328.161 47.5587 328.061 47.6019 327.955 47.6091C327.807 47.6101 327.723 47.4857 327.806 47.2815L327.805 47.2835ZM298.6 42.9149C298.273 42.6215 298.565 42.2204 298.96 42.4522C303.77 45.1842 309.206 46.6173 314.736 46.6112C318.87 46.5924 322.959 45.761 326.772 44.1641C327.363 43.9179 327.854 44.5551 327.278 44.9791C323.787 47.5378 318.728 48.9002 314.37 48.9002C308.554 48.9321 302.933 46.7991 298.6 42.9149ZM335.356 35.9453V35.9801C335.356 37.1525 335.356 39.5774 336.799 39.5774C338.245 39.5774 338.314 37.5833 338.308 36.3669C338.339 35.5193 338.245 34.6714 338.03 33.8511C337.971 33.5771 337.816 33.3336 337.593 33.165C337.37 32.9964 337.093 32.9144 336.814 32.9337C335.445 32.9342 335.356 34.784 335.356 35.9433V35.9453ZM292.722 38.2662C292.722 39.0659 293.137 39.6047 293.851 39.6047C294.121 39.5934 294.383 39.5098 294.609 39.3623C294.835 39.2148 295.018 39.009 295.137 38.7666C295.436 38.1593 295.558 37.4792 295.486 36.8058V36.4073C294.14 36.4047 292.72 36.6901 292.72 38.2637L292.722 38.2662ZM317.095 38.2664C317.095 39.0661 317.513 39.6049 318.228 39.6049C318.498 39.5929 318.759 39.5089 318.984 39.3615C319.21 39.2141 319.392 39.0087 319.512 38.7668C319.811 38.1595 319.932 37.4794 319.861 36.806V36.4075C318.513 36.4049 317.093 36.6903 317.093 38.2639L317.095 38.2664ZM347.643 41.2461C347.702 41.3006 347.779 41.3332 347.859 41.3384L349.728 41.3424C349.813 41.3429 349.896 41.313 349.962 41.2581C350.028 41.2032 350.072 41.1267 350.087 41.0424V35.0716V35.0687C350.087 34.1511 350.087 32.8784 349.6 32.1186C349.366 31.7581 349.043 31.4649 348.662 31.2685C348.28 31.0721 347.854 30.979 347.426 30.999C346.144 30.999 345.411 31.6185 344.893 32.9141H344.864V31.4652C344.843 31.3908 344.801 31.3246 344.741 31.2765C344.681 31.2284 344.607 31.2013 344.53 31.1982H342.807C342.719 31.1956 342.634 31.2255 342.567 31.2825C342.501 31.3396 342.458 31.4194 342.447 31.5064L342.449 40.9936C342.451 41.0832 342.487 41.1689 342.549 41.233C342.612 41.2972 342.697 41.3347 342.786 41.3384H344.634C344.68 41.3398 344.726 41.332 344.77 41.3153C344.814 41.2987 344.853 41.2736 344.887 41.2416C344.921 41.2095 344.948 41.1712 344.967 41.1286C344.986 41.0861 344.996 41.0402 344.998 40.9936V35.8892C344.962 35.2749 345.063 34.6604 345.295 34.0905C345.382 33.8737 345.531 33.6869 345.722 33.5525C345.914 33.418 346.14 33.3413 346.373 33.3321C347.554 33.3321 347.542 34.6194 347.533 35.6334C347.532 35.7203 347.531 35.8052 347.531 35.8872V41.0383C347.544 41.1182 347.583 41.1915 347.643 41.2461ZM310.544 41.3347C310.455 41.3298 310.371 41.2919 310.309 41.2283C310.247 41.1647 310.211 41.0802 310.209 40.9914V35.9632C310.236 35.3699 310.219 34.7753 310.158 34.1846C310.12 33.9316 309.983 33.7036 309.779 33.5507C309.574 33.3978 309.317 33.3325 309.065 33.3685C308.824 33.3755 308.59 33.4527 308.393 33.5909C308.195 33.729 308.043 33.922 307.953 34.1459C307.799 34.7386 307.741 35.3522 307.781 35.9632V40.9914C307.78 41.0376 307.77 41.0831 307.752 41.1254C307.733 41.1676 307.706 41.2059 307.672 41.2378C307.639 41.2697 307.6 41.2944 307.557 41.3111C307.514 41.3277 307.468 41.3358 307.422 41.3347H305.565C305.476 41.3306 305.392 41.293 305.33 41.2293C305.267 41.1656 305.231 41.0805 305.229 40.9914V35.9632C305.229 35.857 305.231 35.7459 305.233 35.6318C305.248 34.6085 305.268 33.349 304.08 33.349C302.795 33.349 302.797 34.7551 302.799 35.8389L302.799 35.9632V40.9924C302.798 41.0385 302.788 41.0837 302.769 41.1259C302.751 41.1681 302.724 41.206 302.691 41.2378C302.657 41.2696 302.618 41.2945 302.575 41.3111C302.531 41.3277 302.486 41.3358 302.44 41.3347H300.579C300.495 41.332 300.415 41.2991 300.354 41.2419C300.293 41.1846 300.254 41.1065 300.246 41.023V31.5387C300.247 31.4926 300.257 31.4474 300.276 31.4052C300.294 31.363 300.321 31.3251 300.354 31.2934C300.388 31.2615 300.427 31.2366 300.47 31.2201C300.513 31.2035 300.559 31.1952 300.605 31.1965H302.338C302.424 31.1988 302.505 31.2326 302.567 31.2913C302.63 31.3501 302.669 31.4298 302.676 31.5152V32.7528H302.708C302.863 32.2293 303.188 31.7725 303.632 31.4544C304.075 31.1364 304.611 30.9752 305.156 30.9962C306.32 30.9962 307.05 31.5569 307.569 32.7528C307.745 32.3011 308.037 31.9039 308.415 31.601C308.793 31.2981 309.244 31.1003 309.723 31.0274C310.202 30.9544 310.691 31.0088 311.142 31.1854C311.593 31.362 311.99 31.6548 312.291 32.0336C312.795 32.7165 312.779 33.6655 312.765 34.5623C312.762 34.7122 312.76 34.8607 312.76 35.0062L312.758 40.9914C312.757 41.0376 312.746 41.0832 312.727 41.1254C312.709 41.1676 312.682 41.2054 312.649 41.2373C312.615 41.2692 312.576 41.2944 312.533 41.3111C312.49 41.3277 312.444 41.3357 312.398 41.3347H310.544ZM324.388 39.375V40.7521L324.386 40.7501C324.388 40.836 324.422 40.9179 324.48 40.9809C324.539 41.044 324.618 41.0839 324.703 41.0929C324.744 41.0927 324.785 41.0816 324.821 41.0613C325.819 40.5481 326.925 40.2799 328.047 40.2784C329.168 40.2768 330.275 40.5423 331.274 41.0527C331.324 41.0731 331.379 41.0807 331.433 41.0748C331.487 41.0689 331.538 41.0494 331.583 41.0186C331.627 40.9878 331.664 40.9465 331.688 40.8981C331.713 40.8498 331.725 40.7958 331.724 40.7416V39.2932C331.72 39.1845 331.688 39.0783 331.63 38.986C331.573 38.8938 331.492 38.8185 331.396 38.7672C330.321 38.2126 329.118 37.9557 327.91 38.0235L331.081 33.5308C331.376 33.1263 331.543 32.8738 331.543 32.6791V31.5162C331.544 31.47 331.535 31.4245 331.517 31.3817C331.499 31.339 331.473 31.3 331.44 31.2678C331.407 31.2356 331.367 31.2105 331.324 31.1941C331.281 31.1777 331.235 31.1704 331.188 31.1725H325.08C325.035 31.1709 324.989 31.1788 324.947 31.1955C324.904 31.2123 324.866 31.2376 324.833 31.2699C324.801 31.3021 324.776 31.3403 324.759 31.3828C324.742 31.4252 324.734 31.4706 324.736 31.5162V32.8738C324.735 32.9198 324.743 32.9653 324.761 33.0078C324.778 33.0504 324.805 33.0887 324.838 33.1207C324.871 33.1527 324.91 33.1779 324.953 33.194C324.996 33.2101 325.042 33.2171 325.088 33.2146H328.281L324.612 38.444C324.446 38.7251 324.368 39.0492 324.388 39.375Z" fill="white"/>
<path opacity="0.4" d="M330.459 209.908C340.414 209.908 348.484 201.838 348.484 191.883C348.484 181.927 340.414 173.857 330.459 173.857C320.503 173.857 312.433 181.927 312.433 191.883C312.433 201.838 320.503 209.908 330.459 209.908Z" fill="white"/>
<path opacity="0.859468" d="M308.026 209.908C317.982 209.908 326.052 201.838 326.052 191.883C326.052 181.927 317.982 173.857 308.026 173.857C298.071 173.857 290 181.927 290 191.883C290 201.838 298.071 209.908 308.026 209.908Z" fill="white"/>
<path d="M30.96 47.9084L33.136 36.7084H34.752L37.48 43.8844L40.208 36.7084H41.824L44 47.9084H42.008L40.664 40.9804L38.144 47.6524H36.808L34.288 40.9804L32.952 47.9084H30.96ZM48.7894 48.1164C48.0534 48.1164 47.3814 47.9271 46.7734 47.5484C46.1707 47.1698 45.688 46.6631 45.3254 46.0284C44.968 45.3884 44.7894 44.6818 44.7894 43.9084C44.7894 43.3218 44.8934 42.7751 45.1014 42.2684C45.3094 41.7564 45.5947 41.3084 45.9574 40.9244C46.3254 40.5351 46.752 40.2311 47.2374 40.0124C47.7227 39.7938 48.24 39.6844 48.7894 39.6844C49.5254 39.6844 50.1947 39.8738 50.7974 40.2524C51.4054 40.6311 51.888 41.1404 52.2454 41.7804C52.608 42.4204 52.7894 43.1298 52.7894 43.9084C52.7894 44.4898 52.6854 45.0338 52.4774 45.5404C52.2694 46.0471 51.9814 46.4951 51.6134 46.8844C51.2507 47.2684 50.8267 47.5698 50.3414 47.7884C49.8614 48.0071 49.344 48.1164 48.7894 48.1164ZM48.7894 46.1644C49.1787 46.1644 49.528 46.0604 49.8374 45.8524C50.1467 45.6444 50.3894 45.3698 50.5654 45.0284C50.7467 44.6871 50.8374 44.3138 50.8374 43.9084C50.8374 43.4924 50.744 43.1138 50.5574 42.7724C50.376 42.4258 50.128 42.1511 49.8134 41.9484C49.504 41.7404 49.1627 41.6364 48.7894 41.6364C48.4054 41.6364 48.0587 41.7404 47.7494 41.9484C47.44 42.1564 47.1947 42.4338 47.0134 42.7804C46.832 43.1271 46.7414 43.5031 46.7414 43.9084C46.7414 44.3298 46.8347 44.7111 47.0214 45.0524C47.208 45.3938 47.456 45.6658 47.7654 45.8684C48.08 46.0658 48.4214 46.1644 48.7894 46.1644ZM59.2262 45.5004L60.9862 46.4524C60.6182 46.9538 60.1569 47.3564 59.6023 47.6604C59.0476 47.9644 58.4422 48.1164 57.7862 48.1164C57.0502 48.1164 56.3782 47.9271 55.7702 47.5484C55.1676 47.1698 54.6849 46.6631 54.3222 46.0284C53.9649 45.3884 53.7862 44.6818 53.7862 43.9084C53.7862 43.3218 53.8902 42.7751 54.0982 42.2684C54.3062 41.7564 54.5916 41.3084 54.9542 40.9244C55.3222 40.5351 55.7489 40.2311 56.2342 40.0124C56.7196 39.7938 57.2369 39.6844 57.7862 39.6844C58.4422 39.6844 59.0476 39.8364 59.6023 40.1404C60.1569 40.4444 60.6182 40.8524 60.9862 41.3644L59.2262 42.3084C59.0396 42.0951 58.8182 41.9298 58.5622 41.8124C58.3116 41.6951 58.0529 41.6364 57.7862 41.6364C57.4022 41.6364 57.0556 41.7431 56.7462 41.9564C56.4369 42.1644 56.1916 42.4418 56.0102 42.7884C55.8289 43.1298 55.7382 43.5031 55.7382 43.9084C55.7382 44.3084 55.8289 44.6818 56.0102 45.0284C56.1916 45.3698 56.4369 45.6444 56.7462 45.8524C57.0556 46.0604 57.4022 46.1644 57.7862 46.1644C58.0636 46.1644 58.3276 46.1058 58.5782 45.9884C58.8289 45.8658 59.0449 45.7031 59.2262 45.5004ZM68.4045 39.9084H70.3565V47.9084H68.4045L68.3165 46.9164C68.0978 47.2738 67.8072 47.5644 67.4445 47.7884C67.0872 48.0071 66.6632 48.1164 66.1725 48.1164C65.5805 48.1164 65.0258 48.0044 64.5085 47.7804C63.9912 47.5564 63.5352 47.2471 63.1405 46.8524C62.7512 46.4578 62.4445 46.0018 62.2205 45.4844C62.0018 44.9671 61.8925 44.4124 61.8925 43.8204C61.8925 43.2498 61.9965 42.7138 62.2045 42.2124C62.4178 41.7111 62.7138 41.2711 63.0925 40.8924C63.4712 40.5138 63.9085 40.2178 64.4045 40.0044C64.9005 39.7911 65.4338 39.6844 66.0045 39.6844C66.5325 39.6844 67.0045 39.8018 67.4205 40.0364C67.8418 40.2711 68.1992 40.5698 68.4925 40.9324L68.4045 39.9084ZM66.1245 46.2364C66.5405 46.2364 66.9085 46.1324 67.2285 45.9244C67.5485 45.7164 67.7992 45.4364 67.9805 45.0844C68.1618 44.7271 68.2525 44.3351 68.2525 43.9084C68.2525 43.4764 68.1618 43.0844 67.9805 42.7324C67.7992 42.3751 67.5458 42.0924 67.2205 41.8844C66.9005 41.6764 66.5352 41.5724 66.1245 41.5724C65.7138 41.5724 65.3378 41.6791 64.9965 41.8924C64.6605 42.1004 64.3912 42.3804 64.1885 42.7324C63.9912 43.0844 63.8925 43.4764 63.8925 43.9084C63.8925 44.3404 63.9938 44.7324 64.1965 45.0844C64.3992 45.4364 64.6685 45.7164 65.0045 45.9244C65.3458 46.1324 65.7192 46.2364 66.1245 46.2364ZM72.1586 47.9084L72.1506 39.9084H74.1026L74.1106 40.6204C74.3826 40.3324 74.708 40.1058 75.0866 39.9404C75.4653 39.7698 75.8733 39.6844 76.3106 39.6844C76.604 39.6844 76.8973 39.7271 77.1906 39.8124L76.4226 41.7804C76.22 41.7004 76.0173 41.6604 75.8146 41.6604C75.5 41.6604 75.212 41.7378 74.9506 41.8924C74.6946 42.0418 74.4893 42.2471 74.3346 42.5084C74.1853 42.7644 74.1106 43.0498 74.1106 43.3644V47.9084H72.1586ZM83.9611 35.9084H85.9131V47.9084H83.9611V46.9084C83.7051 47.2658 83.3825 47.5564 82.9931 47.7804C82.6038 48.0044 82.1531 48.1164 81.6411 48.1164C81.0598 48.1164 80.5158 48.0071 80.0091 47.7884C79.5025 47.5698 79.0545 47.2684 78.6651 46.8844C78.2811 46.4951 77.9798 46.0471 77.7611 45.5404C77.5425 45.0338 77.4331 44.4898 77.4331 43.9084C77.4331 43.3271 77.5425 42.7831 77.7611 42.2764C77.9798 41.7698 78.2811 41.3244 78.6651 40.9404C79.0545 40.5511 79.5025 40.2471 80.0091 40.0284C80.5158 39.8098 81.0598 39.7004 81.6411 39.7004C82.1531 39.7004 82.6038 39.8124 82.9931 40.0364C83.3825 40.2551 83.7051 40.5458 83.9611 40.9084V35.9084ZM81.6651 46.2364C82.0811 46.2364 82.4491 46.1324 82.7691 45.9244C83.0891 45.7164 83.3398 45.4364 83.5211 45.0844C83.7025 44.7271 83.7931 44.3351 83.7931 43.9084C83.7931 43.4764 83.7025 43.0844 83.5211 42.7324C83.3398 42.3751 83.0865 42.0924 82.7611 41.8844C82.4411 41.6764 82.0758 41.5724 81.6651 41.5724C81.2545 41.5724 80.8785 41.6791 80.5371 41.8924C80.2011 42.1004 79.9318 42.3804 79.7291 42.7324C79.5318 43.0844 79.4331 43.4764 79.4331 43.9084C79.4331 44.3404 79.5345 44.7324 79.7371 45.0844C79.9398 45.4364 80.2091 45.7164 80.5451 45.9244C80.8865 46.1324 81.2598 46.2364 81.6651 46.2364Z" fill="white"/>
<path d="M35.928 120.516C34.808 120.516 33.856 120.132 33.072 119.364C32.304 118.58 31.92 117.628 31.92 116.508C31.92 115.388 32.304 114.444 33.072 113.676C33.856 112.892 34.808 112.5 35.928 112.5C37.048 112.5 38 112.892 38.784 113.676C39.568 114.444 39.96 115.388 39.96 116.508C39.96 117.628 39.568 118.58 38.784 119.364C38 120.132 37.048 120.516 35.928 120.516ZM47.7874 120.516C46.6674 120.516 45.7154 120.132 44.9314 119.364C44.1634 118.58 43.7794 117.628 43.7794 116.508C43.7794 115.388 44.1634 114.444 44.9314 113.676C45.7154 112.892 46.6674 112.5 47.7874 112.5C48.9074 112.5 49.8594 112.892 50.6434 113.676C51.4274 114.444 51.8194 115.388 51.8194 116.508C51.8194 117.628 51.4274 118.58 50.6434 119.364C49.8594 120.132 48.9074 120.516 47.7874 120.516ZM59.6468 120.516C58.5268 120.516 57.5748 120.132 56.7908 119.364C56.0228 118.58 55.6388 117.628 55.6388 116.508C55.6388 115.388 56.0228 114.444 56.7908 113.676C57.5748 112.892 58.5268 112.5 59.6468 112.5C60.7668 112.5 61.7188 112.892 62.5028 113.676C63.2868 114.444 63.6788 115.388 63.6788 116.508C63.6788 117.628 63.2868 118.58 62.5028 119.364C61.7188 120.132 60.7668 120.516 59.6468 120.516ZM71.5061 120.516C70.3861 120.516 69.4341 120.132 68.6501 119.364C67.8821 118.58 67.4981 117.628 67.4981 116.508C67.4981 115.388 67.8821 114.444 68.6501 113.676C69.4341 112.892 70.3861 112.5 71.5061 112.5C72.6261 112.5 73.5781 112.892 74.3621 113.676C75.1461 114.444 75.5381 115.388 75.5381 116.508C75.5381 117.628 75.1461 118.58 74.3621 119.364C73.5781 120.132 72.6261 120.516 71.5061 120.516ZM94.8968 120.516C93.7768 120.516 92.8248 120.132 92.0408 119.364C91.2728 118.58 90.8888 117.628 90.8888 116.508C90.8888 115.388 91.2728 114.444 92.0408 113.676C92.8248 112.892 93.7768 112.5 94.8968 112.5C96.0168 112.5 96.9688 112.892 97.7528 113.676C98.5368 114.444 98.9288 115.388 98.9288 116.508C98.9288 117.628 98.5368 118.58 97.7528 119.364C96.9688 120.132 96.0168 120.516 94.8968 120.516ZM106.756 120.516C105.636 120.516 104.684 120.132 103.9 119.364C103.132 118.58 102.748 117.628 102.748 116.508C102.748 115.388 103.132 114.444 103.9 113.676C104.684 112.892 105.636 112.5 106.756 112.5C107.876 112.5 108.828 112.892 109.612 113.676C110.396 114.444 110.788 115.388 110.788 116.508C110.788 117.628 110.396 118.58 109.612 119.364C108.828 120.132 107.876 120.516 106.756 120.516ZM118.616 120.516C117.496 120.516 116.544 120.132 115.76 119.364C114.992 118.58 114.608 117.628 114.608 116.508C114.608 115.388 114.992 114.444 115.76 113.676C116.544 112.892 117.496 112.5 118.616 112.5C119.736 112.5 120.688 112.892 121.472 113.676C122.256 114.444 122.648 115.388 122.648 116.508C122.648 117.628 122.256 118.58 121.472 119.364C120.688 120.132 119.736 120.516 118.616 120.516ZM130.475 120.516C129.355 120.516 128.403 120.132 127.619 119.364C126.851 118.58 126.467 117.628 126.467 116.508C126.467 115.388 126.851 114.444 127.619 113.676C128.403 112.892 129.355 112.5 130.475 112.5C131.595 112.5 132.547 112.892 133.331 113.676C134.115 114.444 134.507 115.388 134.507 116.508C134.507 117.628 134.115 118.58 133.331 119.364C132.547 120.132 131.595 120.516 130.475 120.516ZM153.866 120.516C152.746 120.516 151.794 120.132 151.01 119.364C150.242 118.58 149.858 117.628 149.858 116.508C149.858 115.388 150.242 114.444 151.01 113.676C151.794 112.892 152.746 112.5 153.866 112.5C154.986 112.5 155.938 112.892 156.722 113.676C157.506 114.444 157.898 115.388 157.898 116.508C157.898 117.628 157.506 118.58 156.722 119.364C155.938 120.132 154.986 120.516 153.866 120.516ZM165.725 120.516C164.605 120.516 163.653 120.132 162.869 119.364C162.101 118.58 161.717 117.628 161.717 116.508C161.717 115.388 162.101 114.444 162.869 113.676C163.653 112.892 164.605 112.5 165.725 112.5C166.845 112.5 167.797 112.892 168.581 113.676C169.365 114.444 169.757 115.388 169.757 116.508C169.757 117.628 169.365 118.58 168.581 119.364C167.797 120.132 166.845 120.516 165.725 120.516ZM177.584 120.516C176.464 120.516 175.512 120.132 174.728 119.364C173.96 118.58 173.576 117.628 173.576 116.508C173.576 115.388 173.96 114.444 174.728 113.676C175.512 112.892 176.464 112.5 177.584 112.5C178.704 112.5 179.656 112.892 180.44 113.676C181.224 114.444 181.616 115.388 181.616 116.508C181.616 117.628 181.224 118.58 180.44 119.364C179.656 120.132 178.704 120.516 177.584 120.516ZM189.444 120.516C188.324 120.516 187.372 120.132 186.588 119.364C185.82 118.58 185.436 117.628 185.436 116.508C185.436 115.388 185.82 114.444 186.588 113.676C187.372 112.892 188.324 112.5 189.444 112.5C190.564 112.5 191.516 112.892 192.3 113.676C193.084 114.444 193.476 115.388 193.476 116.508C193.476 117.628 193.084 118.58 192.3 119.364C191.516 120.132 190.564 120.516 189.444 120.516ZM212.834 120.516C211.714 120.516 210.762 120.132 209.978 119.364C209.21 118.58 208.826 117.628 208.826 116.508C208.826 115.388 209.21 114.444 209.978 113.676C210.762 112.892 211.714 112.5 212.834 112.5C213.954 112.5 214.906 112.892 215.69 113.676C216.474 114.444 216.866 115.388 216.866 116.508C216.866 117.628 216.474 118.58 215.69 119.364C214.906 120.132 213.954 120.516 212.834 120.516ZM224.694 120.516C223.574 120.516 222.622 120.132 221.838 119.364C221.07 118.58 220.686 117.628 220.686 116.508C220.686 115.388 221.07 114.444 221.838 113.676C222.622 112.892 223.574 112.5 224.694 112.5C225.814 112.5 226.766 112.892 227.55 113.676C228.334 114.444 228.726 115.388 228.726 116.508C228.726 117.628 228.334 118.58 227.55 119.364C226.766 120.132 225.814 120.516 224.694 120.516ZM236.553 120.516C235.433 120.516 234.481 120.132 233.697 119.364C232.929 118.58 232.545 117.628 232.545 116.508C232.545 115.388 232.929 114.444 233.697 113.676C234.481 112.892 235.433 112.5 236.553 112.5C237.673 112.5 238.625 112.892 239.409 113.676C240.193 114.444 240.585 115.388 240.585 116.508C240.585 117.628 240.193 118.58 239.409 119.364C238.625 120.132 237.673 120.516 236.553 120.516ZM248.412 120.516C247.292 120.516 246.34 120.132 245.556 119.364C244.788 118.58 244.404 117.628 244.404 116.508C244.404 115.388 244.788 114.444 245.556 113.676C246.34 112.892 247.292 112.5 248.412 112.5C249.532 112.5 250.484 112.892 251.268 113.676C252.052 114.444 252.444 115.388 252.444 116.508C252.444 117.628 252.052 118.58 251.268 119.364C250.484 120.132 249.532 120.516 248.412 120.516Z" fill="white"/>
<path d="M33.84 185.038C33.3667 185.038 32.9217 184.945 32.505 184.758C32.0883 184.568 31.7217 184.307 31.405 183.973C31.0917 183.64 30.845 183.255 30.665 182.818C30.4883 182.378 30.4 181.908 30.4 181.408C30.4 180.905 30.4883 180.435 30.665 179.998C30.845 179.558 31.0917 179.173 31.405 178.843C31.7217 178.51 32.0883 178.25 32.505 178.063C32.9217 177.873 33.3667 177.778 33.84 177.778C34.4067 177.778 34.9283 177.91 35.405 178.173C35.8817 178.433 36.2767 178.782 36.59 179.218L35.5 179.803C35.3033 179.56 35.0583 179.365 34.765 179.218C34.475 179.072 34.1667 178.998 33.84 178.998C33.5333 178.998 33.245 179.062 32.975 179.188C32.705 179.312 32.4683 179.485 32.265 179.708C32.0617 179.928 31.9033 180.185 31.79 180.478C31.6767 180.768 31.62 181.078 31.62 181.408C31.62 181.742 31.6767 182.053 31.79 182.343C31.9067 182.633 32.0667 182.89 32.27 183.113C32.4733 183.333 32.7083 183.507 32.975 183.633C33.245 183.757 33.5333 183.818 33.84 183.818C34.1733 183.818 34.4833 183.745 34.77 183.598C35.06 183.448 35.3033 183.252 35.5 183.008L36.59 183.598C36.2767 184.032 35.8817 184.38 35.405 184.643C34.9283 184.907 34.4067 185.038 33.84 185.038ZM41.2399 179.908H42.4599V184.908H41.2399L41.1849 184.288C41.0483 184.512 40.8666 184.693 40.6399 184.833C40.4166 184.97 40.1516 185.038 39.8449 185.038C39.4749 185.038 39.1283 184.968 38.8049 184.828C38.4816 184.688 38.1966 184.495 37.9499 184.248C37.7066 184.002 37.5149 183.717 37.3749 183.393C37.2383 183.07 37.1699 182.723 37.1699 182.353C37.1699 181.997 37.2349 181.662 37.3649 181.348C37.4983 181.035 37.6833 180.76 37.9199 180.523C38.1566 180.287 38.4299 180.102 38.7399 179.968C39.0499 179.835 39.3833 179.768 39.7399 179.768C40.0699 179.768 40.3649 179.842 40.6249 179.988C40.8883 180.135 41.1116 180.322 41.2949 180.548L41.2399 179.908ZM39.8149 183.863C40.0749 183.863 40.3049 183.798 40.5049 183.668C40.7049 183.538 40.8616 183.363 40.9749 183.143C41.0883 182.92 41.1449 182.675 41.1449 182.408C41.1449 182.138 41.0883 181.893 40.9749 181.673C40.8616 181.45 40.7033 181.273 40.4999 181.143C40.2999 181.013 40.0716 180.948 39.8149 180.948C39.5583 180.948 39.3233 181.015 39.1099 181.148C38.8999 181.278 38.7316 181.453 38.6049 181.673C38.4816 181.893 38.4199 182.138 38.4199 182.408C38.4199 182.678 38.4833 182.923 38.6099 183.143C38.7366 183.363 38.9049 183.538 39.1149 183.668C39.3283 183.798 39.5616 183.863 39.8149 183.863ZM43.6612 184.908L43.6562 179.908H44.8762L44.8812 180.353C45.0512 180.173 45.2546 180.032 45.4912 179.928C45.7279 179.822 45.9829 179.768 46.2562 179.768C46.4396 179.768 46.6229 179.795 46.8062 179.848L46.3262 181.078C46.1996 181.028 46.0729 181.003 45.9462 181.003C45.7496 181.003 45.5696 181.052 45.4062 181.148C45.2462 181.242 45.1179 181.37 45.0212 181.533C44.9279 181.693 44.8812 181.872 44.8812 182.068V184.908H43.6612ZM51.1128 177.408H52.3328V184.908H51.1128V184.283C50.9528 184.507 50.7511 184.688 50.5078 184.828C50.2645 184.968 49.9828 185.038 49.6628 185.038C49.2995 185.038 48.9595 184.97 48.6428 184.833C48.3261 184.697 48.0461 184.508 47.8028 184.268C47.5628 184.025 47.3745 183.745 47.2378 183.428C47.1011 183.112 47.0328 182.772 47.0328 182.408C47.0328 182.045 47.1011 181.705 47.2378 181.388C47.3745 181.072 47.5628 180.793 47.8028 180.553C48.0461 180.31 48.3261 180.12 48.6428 179.983C48.9595 179.847 49.2995 179.778 49.6628 179.778C49.9828 179.778 50.2645 179.848 50.5078 179.988C50.7511 180.125 50.9528 180.307 51.1128 180.533V177.408ZM49.6778 183.863C49.9378 183.863 50.1678 183.798 50.3678 183.668C50.5678 183.538 50.7245 183.363 50.8378 183.143C50.9511 182.92 51.0078 182.675 51.0078 182.408C51.0078 182.138 50.9511 181.893 50.8378 181.673C50.7245 181.45 50.5661 181.273 50.3628 181.143C50.1628 181.013 49.9345 180.948 49.6778 180.948C49.4211 180.948 49.1861 181.015 48.9728 181.148C48.7628 181.278 48.5945 181.453 48.4678 181.673C48.3445 181.893 48.2828 182.138 48.2828 182.408C48.2828 182.678 48.3461 182.923 48.4728 183.143C48.5995 183.363 48.7678 183.538 48.9778 183.668C49.1911 183.798 49.4245 183.863 49.6778 183.863ZM60.4563 177.908H61.6763V184.908H60.4563V181.768H57.5563V184.908H56.3363V177.908H57.5563V180.548H60.4563V177.908ZM65.2012 185.038C64.7412 185.038 64.3212 184.92 63.9412 184.683C63.5645 184.447 63.2628 184.13 63.0362 183.733C62.8128 183.333 62.7012 182.892 62.7012 182.408C62.7012 182.042 62.7662 181.7 62.8962 181.383C63.0262 181.063 63.2045 180.783 63.4312 180.543C63.6612 180.3 63.9278 180.11 64.2312 179.973C64.5345 179.837 64.8578 179.768 65.2012 179.768C65.6612 179.768 66.0795 179.887 66.4562 180.123C66.8362 180.36 67.1378 180.678 67.3612 181.078C67.5878 181.478 67.7012 181.922 67.7012 182.408C67.7012 182.772 67.6362 183.112 67.5062 183.428C67.3762 183.745 67.1962 184.025 66.9662 184.268C66.7395 184.508 66.4745 184.697 66.1712 184.833C65.8712 184.97 65.5478 185.038 65.2012 185.038ZM65.2012 183.818C65.4445 183.818 65.6628 183.753 65.8562 183.623C66.0495 183.493 66.2012 183.322 66.3112 183.108C66.4245 182.895 66.4812 182.662 66.4812 182.408C66.4812 182.148 66.4228 181.912 66.3062 181.698C66.1928 181.482 66.0378 181.31 65.8412 181.183C65.6478 181.053 65.4345 180.988 65.2012 180.988C64.9612 180.988 64.7445 181.053 64.5512 181.183C64.3578 181.313 64.2045 181.487 64.0912 181.703C63.9778 181.92 63.9212 182.155 63.9212 182.408C63.9212 182.672 63.9795 182.91 64.0962 183.123C64.2128 183.337 64.3678 183.507 64.5612 183.633C64.7578 183.757 64.9712 183.818 65.2012 183.818ZM68.6016 184.908V177.408H69.8216V184.908H68.6016ZM74.9253 177.408H76.1453V184.908H74.9253V184.283C74.7653 184.507 74.5636 184.688 74.3203 184.828C74.077 184.968 73.7953 185.038 73.4753 185.038C73.112 185.038 72.772 184.97 72.4553 184.833C72.1386 184.697 71.8586 184.508 71.6153 184.268C71.3753 184.025 71.187 183.745 71.0503 183.428C70.9136 183.112 70.8453 182.772 70.8453 182.408C70.8453 182.045 70.9136 181.705 71.0503 181.388C71.187 181.072 71.3753 180.793 71.6153 180.553C71.8586 180.31 72.1386 180.12 72.4553 179.983C72.772 179.847 73.112 179.778 73.4753 179.778C73.7953 179.778 74.077 179.848 74.3203 179.988C74.5636 180.125 74.7653 180.307 74.9253 180.533V177.408ZM73.4903 183.863C73.7503 183.863 73.9803 183.798 74.1803 183.668C74.3803 183.538 74.537 183.363 74.6503 183.143C74.7636 182.92 74.8203 182.675 74.8203 182.408C74.8203 182.138 74.7636 181.893 74.6503 181.673C74.537 181.45 74.3786 181.273 74.1753 181.143C73.9753 181.013 73.747 180.948 73.4903 180.948C73.2336 180.948 72.9986 181.015 72.7853 181.148C72.5753 181.278 72.407 181.453 72.2803 181.673C72.157 181.893 72.0953 182.138 72.0953 182.408C72.0953 182.678 72.1586 182.923 72.2853 183.143C72.412 183.363 72.5803 183.538 72.7903 183.668C73.0036 183.798 73.237 183.863 73.4903 183.863ZM79.6684 185.038C79.2084 185.038 78.7884 184.92 78.4084 184.683C78.0317 184.447 77.73 184.128 77.5034 183.728C77.28 183.328 77.1684 182.887 77.1684 182.403C77.1684 182.04 77.2334 181.7 77.3634 181.383C77.4934 181.063 77.6717 180.783 77.8984 180.543C78.1284 180.3 78.395 180.11 78.6984 179.973C79.0017 179.837 79.325 179.768 79.6684 179.768C80.0584 179.768 80.415 179.852 80.7384 180.018C81.065 180.182 81.3417 180.407 81.5684 180.693C81.795 180.98 81.96 181.307 82.0634 181.673C82.1667 182.04 82.19 182.423 82.1334 182.823H78.4784C78.525 183.01 78.6017 183.178 78.7084 183.328C78.815 183.475 78.95 183.593 79.1134 183.683C79.2767 183.77 79.4617 183.815 79.6684 183.818C79.8817 183.822 80.075 183.772 80.2484 183.668C80.425 183.562 80.5717 183.418 80.6884 183.238L81.9334 183.528C81.73 183.972 81.4267 184.335 81.0234 184.618C80.62 184.898 80.1684 185.038 79.6684 185.038ZM78.4384 181.908H80.8984C80.8617 181.708 80.7834 181.528 80.6634 181.368C80.5467 181.205 80.4017 181.075 80.2284 180.978C80.055 180.882 79.8684 180.833 79.6684 180.833C79.4684 180.833 79.2834 180.882 79.1134 180.978C78.9434 181.072 78.7984 181.2 78.6784 181.363C78.5617 181.523 78.4817 181.705 78.4384 181.908ZM83.1519 184.908L83.1469 179.908H84.3669L84.3719 180.353C84.5419 180.173 84.7452 180.032 84.9819 179.928C85.2185 179.822 85.4735 179.768 85.7469 179.768C85.9302 179.768 86.1135 179.795 86.2969 179.848L85.8169 181.078C85.6902 181.028 85.5635 181.003 85.4369 181.003C85.2402 181.003 85.0602 181.052 84.8969 181.148C84.7369 181.242 84.6085 181.37 84.5119 181.533C84.4185 181.693 84.3719 181.872 84.3719 182.068V184.908H83.1519ZM94.3769 181.748V184.908H93.1569V182.068C93.1569 181.872 93.1085 181.693 93.0119 181.533C92.9152 181.37 92.7852 181.242 92.6219 181.148C92.4619 181.052 92.2835 181.003 92.0869 181.003C91.8902 181.003 91.7102 181.052 91.5469 181.148C91.3869 181.242 91.2585 181.37 91.1619 181.533C91.0685 181.693 91.0219 181.872 91.0219 182.068V184.908H89.8019L89.7969 179.908H91.0169L91.0219 180.353C91.1919 180.173 91.3952 180.032 91.6319 179.928C91.8685 179.822 92.1235 179.768 92.3969 179.768C92.7602 179.768 93.0919 179.858 93.3919 180.038C93.6919 180.215 93.9302 180.453 94.1069 180.753C94.2869 181.05 94.3769 181.382 94.3769 181.748ZM99.2454 179.908H100.465V184.908H99.2454L99.1904 184.288C99.0537 184.512 98.8721 184.693 98.6454 184.833C98.4221 184.97 98.1571 185.038 97.8504 185.038C97.4804 185.038 97.1337 184.968 96.8104 184.828C96.4871 184.688 96.2021 184.495 95.9554 184.248C95.7121 184.002 95.5204 183.717 95.3804 183.393C95.2437 183.07 95.1754 182.723 95.1754 182.353C95.1754 181.997 95.2404 181.662 95.3704 181.348C95.5037 181.035 95.6887 180.76 95.9254 180.523C96.1621 180.287 96.4354 180.102 96.7454 179.968C97.0554 179.835 97.3887 179.768 97.7454 179.768C98.0754 179.768 98.3704 179.842 98.6304 179.988C98.8937 180.135 99.1171 180.322 99.3004 180.548L99.2454 179.908ZM97.8204 183.863C98.0804 183.863 98.3104 183.798 98.5104 183.668C98.7104 183.538 98.8671 183.363 98.9804 183.143C99.0937 182.92 99.1504 182.675 99.1504 182.408C99.1504 182.138 99.0937 181.893 98.9804 181.673C98.8671 181.45 98.7087 181.273 98.5054 181.143C98.3054 181.013 98.0771 180.948 97.8204 180.948C97.5637 180.948 97.3287 181.015 97.1154 181.148C96.9054 181.278 96.7371 181.453 96.6104 181.673C96.4871 181.893 96.4254 182.138 96.4254 182.408C96.4254 182.678 96.4887 182.923 96.6154 183.143C96.7421 183.363 96.9104 183.538 97.1204 183.668C97.3337 183.798 97.5671 183.863 97.8204 183.863ZM101.662 184.908V179.908H102.882V180.353C103.052 180.173 103.255 180.032 103.492 179.928C103.728 179.822 103.983 179.768 104.257 179.768C104.603 179.768 104.922 179.85 105.212 180.013C105.505 180.177 105.738 180.395 105.912 180.668C106.088 180.395 106.322 180.177 106.612 180.013C106.902 179.85 107.22 179.768 107.567 179.768C107.933 179.768 108.265 179.858 108.562 180.038C108.862 180.215 109.1 180.453 109.277 180.753C109.457 181.05 109.547 181.382 109.547 181.748V184.908H108.327V182.073C108.327 181.88 108.278 181.703 108.182 181.543C108.088 181.38 107.962 181.25 107.802 181.153C107.645 181.053 107.468 181.003 107.272 181.003C107.075 181.003 106.897 181.052 106.737 181.148C106.58 181.242 106.453 181.368 106.357 181.528C106.26 181.688 106.212 181.87 106.212 182.073V184.908H104.992V182.073C104.992 181.87 104.945 181.688 104.852 181.528C104.758 181.368 104.632 181.242 104.472 181.148C104.312 181.052 104.133 181.003 103.937 181.003C103.743 181.003 103.567 181.053 103.407 181.153C103.247 181.25 103.118 181.38 103.022 181.543C102.928 181.703 102.882 181.88 102.882 182.073V184.908H101.662ZM112.851 185.038C112.391 185.038 111.971 184.92 111.591 184.683C111.214 184.447 110.912 184.128 110.686 183.728C110.462 183.328 110.351 182.887 110.351 182.403C110.351 182.04 110.416 181.7 110.546 181.383C110.676 181.063 110.854 180.783 111.081 180.543C111.311 180.3 111.577 180.11 111.881 179.973C112.184 179.837 112.507 179.768 112.851 179.768C113.241 179.768 113.597 179.852 113.921 180.018C114.247 180.182 114.524 180.407 114.751 180.693C114.977 180.98 115.142 181.307 115.246 181.673C115.349 182.04 115.372 182.423 115.316 182.823H111.661C111.707 183.01 111.784 183.178 111.891 183.328C111.997 183.475 112.132 183.593 112.296 183.683C112.459 183.77 112.644 183.815 112.851 183.818C113.064 183.822 113.257 183.772 113.431 183.668C113.607 183.562 113.754 183.418 113.871 183.238L115.116 183.528C114.912 183.972 114.609 184.335 114.206 184.618C113.802 184.898 113.351 185.038 112.851 185.038ZM111.621 181.908H114.081C114.044 181.708 113.966 181.528 113.846 181.368C113.729 181.205 113.584 181.075 113.411 180.978C113.237 180.882 113.051 180.833 112.851 180.833C112.651 180.833 112.466 180.882 112.296 180.978C112.126 181.072 111.981 181.2 111.861 181.363C111.744 181.523 111.664 181.705 111.621 181.908Z" fill="white"/>
<path d="M31.575 202.737C31.295 202.737 31.0547 202.639 30.854 202.443C30.658 202.243 30.56 201.995 30.56 201.701C30.56 201.421 30.658 201.181 30.854 200.98C31.0547 200.78 31.295 200.679 31.575 200.679C31.8643 200.679 32.107 200.78 32.303 200.98C32.5037 201.181 32.604 201.421 32.604 201.701C32.604 201.995 32.5037 202.243 32.303 202.443C32.107 202.639 31.8643 202.737 31.575 202.737ZM34.9332 202.737C34.6532 202.737 34.4129 202.639 34.2122 202.443C34.0162 202.243 33.9182 201.995 33.9182 201.701C33.9182 201.421 34.0162 201.181 34.2122 200.98C34.4129 200.78 34.6532 200.679 34.9332 200.679C35.2225 200.679 35.4652 200.78 35.6612 200.98C35.8619 201.181 35.9622 201.421 35.9622 201.701C35.9622 201.995 35.8619 202.243 35.6612 202.443C35.4652 202.639 35.2225 202.737 34.9332 202.737ZM38.2914 202.737C38.0114 202.737 37.7711 202.639 37.5704 202.443C37.3744 202.243 37.2764 201.995 37.2764 201.701C37.2764 201.421 37.3744 201.181 37.5704 200.98C37.7711 200.78 38.0114 200.679 38.2914 200.679C38.5807 200.679 38.8234 200.78 39.0194 200.98C39.2201 201.181 39.3204 201.421 39.3204 201.701C39.3204 201.995 39.2201 202.243 39.0194 202.443C38.8234 202.639 38.5807 202.737 38.2914 202.737ZM41.6496 202.737C41.3696 202.737 41.1293 202.639 40.9286 202.443C40.7326 202.243 40.6346 201.995 40.6346 201.701C40.6346 201.421 40.7326 201.181 40.9286 200.98C41.1293 200.78 41.3696 200.679 41.6496 200.679C41.9389 200.679 42.1816 200.78 42.3776 200.98C42.5783 201.181 42.6786 201.421 42.6786 201.701C42.6786 201.995 42.5783 202.243 42.3776 202.443C42.1816 202.639 41.9389 202.737 41.6496 202.737ZM48.5711 202.737C48.2911 202.737 48.0508 202.639 47.8501 202.443C47.6541 202.243 47.5561 201.995 47.5561 201.701C47.5561 201.421 47.6541 201.181 47.8501 200.98C48.0508 200.78 48.2911 200.679 48.5711 200.679C48.8604 200.679 49.1031 200.78 49.2991 200.98C49.4998 201.181 49.6001 201.421 49.6001 201.701C49.6001 201.995 49.4998 202.243 49.2991 202.443C49.1031 202.639 48.8604 202.737 48.5711 202.737ZM51.9293 202.737C51.6493 202.737 51.409 202.639 51.2083 202.443C51.0123 202.243 50.9143 201.995 50.9143 201.701C50.9143 201.421 51.0123 201.181 51.2083 200.98C51.409 200.78 51.6493 200.679 51.9293 200.679C52.2186 200.679 52.4613 200.78 52.6573 200.98C52.858 201.181 52.9583 201.421 52.9583 201.701C52.9583 201.995 52.858 202.243 52.6573 202.443C52.4613 202.639 52.2186 202.737 51.9293 202.737ZM55.2875 202.737C55.0075 202.737 54.7672 202.639 54.5665 202.443C54.3705 202.243 54.2725 201.995 54.2725 201.701C54.2725 201.421 54.3705 201.181 54.5665 200.98C54.7672 200.78 55.0075 200.679 55.2875 200.679C55.5768 200.679 55.8195 200.78 56.0155 200.98C56.2162 201.181 56.3165 201.421 56.3165 201.701C56.3165 201.995 56.2162 202.243 56.0155 202.443C55.8195 202.639 55.5768 202.737 55.2875 202.737ZM58.6457 202.737C58.3657 202.737 58.1254 202.639 57.9247 202.443C57.7287 202.243 57.6307 201.995 57.6307 201.701C57.6307 201.421 57.7287 201.181 57.9247 200.98C58.1254 200.78 58.3657 200.679 58.6457 200.679C58.935 200.679 59.1777 200.78 59.3737 200.98C59.5744 201.181 59.6747 201.421 59.6747 201.701C59.6747 201.995 59.5744 202.243 59.3737 202.443C59.1777 202.639 58.935 202.737 58.6457 202.737Z" fill="white"/>
<path d="M169.176 184.908V177.908H173.566V179.128H170.396V180.548H172.911V181.768H170.396V183.688H173.566V184.908H169.176ZM174.381 184.908L176.211 182.398L174.396 179.903H175.901L176.961 181.358L178.026 179.903H179.531L177.716 182.398L179.546 184.908H178.041L176.961 183.428L175.886 184.908H174.381ZM181.743 187.408H180.523V179.908H181.743V180.543C181.906 180.317 182.106 180.133 182.343 179.993C182.583 179.85 182.863 179.778 183.183 179.778C183.55 179.778 183.891 179.847 184.208 179.983C184.525 180.12 184.803 180.31 185.043 180.553C185.286 180.793 185.475 181.072 185.608 181.388C185.745 181.705 185.813 182.045 185.813 182.408C185.813 182.772 185.745 183.113 185.608 183.433C185.475 183.753 185.286 184.035 185.043 184.278C184.803 184.518 184.525 184.707 184.208 184.843C183.891 184.98 183.55 185.048 183.183 185.048C182.863 185.048 182.583 184.978 182.343 184.838C182.106 184.695 181.906 184.51 181.743 184.283V187.408ZM183.168 180.953C182.915 180.953 182.688 181.02 182.488 181.153C182.288 181.283 182.131 181.458 182.018 181.678C181.905 181.898 181.848 182.142 181.848 182.408C181.848 182.675 181.905 182.92 182.018 183.143C182.131 183.363 182.288 183.54 182.488 183.673C182.688 183.803 182.915 183.868 183.168 183.868C183.425 183.868 183.66 183.803 183.873 183.673C184.086 183.543 184.256 183.368 184.383 183.148C184.51 182.925 184.573 182.678 184.573 182.408C184.573 182.142 184.51 181.898 184.383 181.678C184.256 181.458 184.086 181.283 183.873 181.153C183.663 181.02 183.428 180.953 183.168 180.953ZM186.69 179.908H187.91V184.908H186.69V179.908ZM187.31 179.263C187.13 179.263 186.978 179.205 186.855 179.088C186.731 178.968 186.67 178.818 186.67 178.638C186.67 178.462 186.731 178.313 186.855 178.193C186.978 178.073 187.128 178.013 187.305 178.013C187.481 178.013 187.63 178.073 187.75 178.193C187.873 178.313 187.935 178.462 187.935 178.638C187.935 178.818 187.875 178.968 187.755 179.088C187.635 179.205 187.486 179.263 187.31 179.263ZM189.278 184.908L189.273 179.908H190.493L190.498 180.353C190.668 180.173 190.871 180.032 191.108 179.928C191.344 179.822 191.599 179.768 191.873 179.768C192.056 179.768 192.239 179.795 192.423 179.848L191.943 181.078C191.816 181.028 191.689 181.003 191.563 181.003C191.366 181.003 191.186 181.052 191.023 181.148C190.863 181.242 190.734 181.37 190.638 181.533C190.544 181.693 190.498 181.872 190.498 182.068V184.908H189.278ZM196.594 179.908H197.889L195.154 187.408H193.859L194.764 184.908L192.964 179.908H194.299L195.374 183.238L196.594 179.908ZM205.469 177.408H206.689V184.908H205.469V184.283C205.309 184.507 205.107 184.688 204.864 184.828C204.621 184.968 204.339 185.038 204.019 185.038C203.656 185.038 203.316 184.97 202.999 184.833C202.682 184.697 202.402 184.508 202.159 184.268C201.919 184.025 201.731 183.745 201.594 183.428C201.457 183.112 201.389 182.772 201.389 182.408C201.389 182.045 201.457 181.705 201.594 181.388C201.731 181.072 201.919 180.793 202.159 180.553C202.402 180.31 202.682 180.12 202.999 179.983C203.316 179.847 203.656 179.778 204.019 179.778C204.339 179.778 204.621 179.848 204.864 179.988C205.107 180.125 205.309 180.307 205.469 180.533V177.408ZM204.034 183.863C204.294 183.863 204.524 183.798 204.724 183.668C204.924 183.538 205.081 183.363 205.194 183.143C205.307 182.92 205.364 182.675 205.364 182.408C205.364 182.138 205.307 181.893 205.194 181.673C205.081 181.45 204.922 181.273 204.719 181.143C204.519 181.013 204.291 180.948 204.034 180.948C203.777 180.948 203.542 181.015 203.329 181.148C203.119 181.278 202.951 181.453 202.824 181.673C202.701 181.893 202.639 182.138 202.639 182.408C202.639 182.678 202.702 182.923 202.829 183.143C202.956 183.363 203.124 183.538 203.334 183.668C203.547 183.798 203.781 183.863 204.034 183.863ZM211.782 179.908H213.002V184.908H211.782L211.727 184.288C211.59 184.512 211.409 184.693 211.182 184.833C210.959 184.97 210.694 185.038 210.387 185.038C210.017 185.038 209.67 184.968 209.347 184.828C209.024 184.688 208.739 184.495 208.492 184.248C208.249 184.002 208.057 183.717 207.917 183.393C207.78 183.07 207.712 182.723 207.712 182.353C207.712 181.997 207.777 181.662 207.907 181.348C208.04 181.035 208.225 180.76 208.462 180.523C208.699 180.287 208.972 180.102 209.282 179.968C209.592 179.835 209.925 179.768 210.282 179.768C210.612 179.768 210.907 179.842 211.167 179.988C211.43 180.135 211.654 180.322 211.837 180.548L211.782 179.908ZM210.357 183.863C210.617 183.863 210.847 183.798 211.047 183.668C211.247 183.538 211.404 183.363 211.517 183.143C211.63 182.92 211.687 182.675 211.687 182.408C211.687 182.138 211.63 181.893 211.517 181.673C211.404 181.45 211.245 181.273 211.042 181.143C210.842 181.013 210.614 180.948 210.357 180.948C210.1 180.948 209.865 181.015 209.652 181.148C209.442 181.278 209.274 181.453 209.147 181.673C209.024 181.893 208.962 182.138 208.962 182.408C208.962 182.678 209.025 182.923 209.152 183.143C209.279 183.363 209.447 183.538 209.657 183.668C209.87 183.798 210.104 183.863 210.357 183.863ZM216.878 181.128H215.908V184.908H214.688V181.128H213.948V179.908H214.688V178.338H215.908V179.908H216.878V181.128ZM220.065 185.038C219.605 185.038 219.185 184.92 218.805 184.683C218.428 184.447 218.127 184.128 217.9 183.728C217.677 183.328 217.565 182.887 217.565 182.403C217.565 182.04 217.63 181.7 217.76 181.383C217.89 181.063 218.068 180.783 218.295 180.543C218.525 180.3 218.792 180.11 219.095 179.973C219.398 179.837 219.722 179.768 220.065 179.768C220.455 179.768 220.812 179.852 221.135 180.018C221.462 180.182 221.738 180.407 221.965 180.693C222.192 180.98 222.357 181.307 222.46 181.673C222.563 182.04 222.587 182.423 222.53 182.823H218.875C218.922 183.01 218.998 183.178 219.105 183.328C219.212 183.475 219.347 183.593 219.51 183.683C219.673 183.77 219.858 183.815 220.065 183.818C220.278 183.822 220.472 183.772 220.645 183.668C220.822 183.562 220.968 183.418 221.085 183.238L222.33 183.528C222.127 183.972 221.823 184.335 221.42 184.618C221.017 184.898 220.565 185.038 220.065 185.038ZM218.835 181.908H221.295C221.258 181.708 221.18 181.528 221.06 181.368C220.943 181.205 220.798 181.075 220.625 180.978C220.452 180.882 220.265 180.833 220.065 180.833C219.865 180.833 219.68 180.882 219.51 180.978C219.34 181.072 219.195 181.2 219.075 181.363C218.958 181.523 218.878 181.705 218.835 181.908Z" fill="white"/>
<path d="M170.151 202.737C169.871 202.737 169.63 202.639 169.43 202.443C169.234 202.243 169.136 201.995 169.136 201.701C169.136 201.421 169.234 201.181 169.43 200.98C169.63 200.78 169.871 200.679 170.151 200.679C170.44 200.679 170.683 200.78 170.879 200.98C171.079 201.181 171.18 201.421 171.18 201.701C171.18 201.995 171.079 202.243 170.879 202.443C170.683 202.639 170.44 202.737 170.151 202.737ZM173.509 202.737C173.229 202.737 172.989 202.639 172.788 202.443C172.592 202.243 172.494 201.995 172.494 201.701C172.494 201.421 172.592 201.181 172.788 200.98C172.989 200.78 173.229 200.679 173.509 200.679C173.798 200.679 174.041 200.78 174.237 200.98C174.438 201.181 174.538 201.421 174.538 201.701C174.538 201.995 174.438 202.243 174.237 202.443C174.041 202.639 173.798 202.737 173.509 202.737ZM176.867 202.737C176.587 202.737 176.347 202.639 176.146 202.443C175.95 202.243 175.852 201.995 175.852 201.701C175.852 201.421 175.95 201.181 176.146 200.98C176.347 200.78 176.587 200.679 176.867 200.679C177.156 200.679 177.399 200.78 177.595 200.98C177.796 201.181 177.896 201.421 177.896 201.701C177.896 201.995 177.796 202.243 177.595 202.443C177.399 202.639 177.156 202.737 176.867 202.737ZM180.225 202.737C179.945 202.737 179.705 202.639 179.504 202.443C179.308 202.243 179.21 201.995 179.21 201.701C179.21 201.421 179.308 201.181 179.504 200.98C179.705 200.78 179.945 200.679 180.225 200.679C180.515 200.679 180.757 200.78 180.953 200.98C181.154 201.181 181.254 201.421 181.254 201.701C181.254 201.995 181.154 202.243 180.953 202.443C180.757 202.639 180.515 202.737 180.225 202.737ZM186.859 196.108L184.024 206.692H182.568L185.403 196.108H186.859ZM189.198 202.737C188.918 202.737 188.677 202.639 188.477 202.443C188.281 202.243 188.183 201.995 188.183 201.701C188.183 201.421 188.281 201.181 188.477 200.98C188.677 200.78 188.918 200.679 189.198 200.679C189.487 200.679 189.73 200.78 189.926 200.98C190.126 201.181 190.227 201.421 190.227 201.701C190.227 201.995 190.126 202.243 189.926 202.443C189.73 202.639 189.487 202.737 189.198 202.737ZM192.556 202.737C192.276 202.737 192.035 202.639 191.835 202.443C191.639 202.243 191.541 201.995 191.541 201.701C191.541 201.421 191.639 201.181 191.835 200.98C192.035 200.78 192.276 200.679 192.556 200.679C192.845 200.679 193.088 200.78 193.284 200.98C193.484 201.181 193.585 201.421 193.585 201.701C193.585 201.995 193.484 202.243 193.284 202.443C193.088 202.639 192.845 202.737 192.556 202.737ZM195.914 202.737C195.634 202.737 195.394 202.639 195.193 202.443C194.997 202.243 194.899 201.995 194.899 201.701C194.899 201.421 194.997 201.181 195.193 200.98C195.394 200.78 195.634 200.679 195.914 200.679C196.203 200.679 196.446 200.78 196.642 200.98C196.843 201.181 196.943 201.421 196.943 201.701C196.943 201.995 196.843 202.243 196.642 202.443C196.446 202.639 196.203 202.737 195.914 202.737ZM199.272 202.737C198.992 202.737 198.752 202.639 198.551 202.443C198.355 202.243 198.257 201.995 198.257 201.701C198.257 201.421 198.355 201.181 198.551 200.98C198.752 200.78 198.992 200.679 199.272 200.679C199.562 200.679 199.804 200.78 200 200.98C200.201 201.181 200.301 201.421 200.301 201.701C200.301 201.995 200.201 202.243 200 202.443C199.804 202.639 199.562 202.737 199.272 202.737Z" fill="white"/>
</g>
<defs>
<linearGradient id="paint0_linear_17_483" x1="56.9335" y1="36.7166" x2="221.849" y2="298.926" gradientUnits="userSpaceOnUse">
<stop stop-color="#01B98F"/>
<stop offset="1" stop-color="#019B77"/>
</linearGradient>
<clipPath id="clip0_17_483">
<rect y="0.908447" width="380" height="239" rx="48" fill="white"/>
</clipPath>
</defs>
</svg>
