<svg width="20" height="19" viewBox="0 0 20 19" fill="none" xmlns="http://www.w3.org/2000/svg">
<path d="M20 13.3539C20 16.1439 17.76 18.4039 14.97 18.4139H14.96H5.05C2.27 18.4139 0 16.1639 0 13.3739V13.3639C0 13.3639 0.006 8.93794 0.014 6.71194C0.015 6.29394 0.495 6.05994 0.822 6.31994C3.198 8.20494 7.447 11.6419 7.5 11.6869C8.21 12.2559 9.11 12.5769 10.03 12.5769C10.95 12.5769 11.85 12.2559 12.56 11.6759C12.613 11.6409 16.767 8.30694 19.179 6.39094C19.507 6.12994 19.989 6.36394 19.99 6.78094C20 8.98994 20 13.3539 20 13.3539Z" fill="url(#paint0_linear_71_775)"/>
<path d="M19.4759 3.08733C18.6099 1.45533 16.9059 0.41333 15.0299 0.41333H5.04988C3.17388 0.41333 1.46988 1.45533 0.603884 3.08733C0.409884 3.45233 0.501884 3.90733 0.824884 4.16533L8.24988 10.1043C8.76988 10.5243 9.39988 10.7333 10.0299 10.7333C10.0339 10.7333 10.0369 10.7333 10.0399 10.7333C10.0429 10.7333 10.0469 10.7333 10.0499 10.7333C10.6799 10.7333 11.3099 10.5243 11.8299 10.1043L19.2549 4.16533C19.5779 3.90733 19.6699 3.45233 19.4759 3.08733Z" fill="url(#paint1_linear_71_775)"/>
<defs>
<linearGradient id="paint0_linear_71_775" x1="2.9965" y1="8.03915" x2="11.304" y2="21.6545" gradientUnits="userSpaceOnUse">
<stop stop-color="#01B98F"/>
<stop offset="1" stop-color="#019B77"/>
</linearGradient>
<linearGradient id="paint1_linear_71_775" x1="3.36068" y1="1.95952" x2="9.97389" y2="14.1824" gradientUnits="userSpaceOnUse">
<stop stop-color="#01B98F"/>
<stop offset="1" stop-color="#019B77"/>
</linearGradient>
</defs>
</svg>
