<svg width="20" height="21" viewBox="0 0 20 21" fill="none" xmlns="http://www.w3.org/2000/svg">
<path fill-rule="evenodd" clip-rule="evenodd" d="M14.1162 3.06274C15.2337 3.06274 16.3087 3.50441 17.0995 4.29691C17.8912 5.08774 18.3337 6.15441 18.3337 7.27108V13.8544C18.3337 16.1794 16.442 18.0627 14.1162 18.0627H5.88366C3.55783 18.0627 1.66699 16.1794 1.66699 13.8544V7.27108C1.66699 4.94608 3.54949 3.06274 5.88366 3.06274H14.1162ZM15.442 8.51274L15.5087 8.44608C15.7078 8.20441 15.7078 7.85441 15.4995 7.61274C15.3837 7.48858 15.2245 7.41274 15.0587 7.39608C14.8837 7.38691 14.717 7.44608 14.5912 7.56274L10.8337 10.5627C10.3503 10.9636 9.65783 10.9636 9.16699 10.5627L5.41699 7.56274C5.15783 7.37108 4.79949 7.39608 4.58366 7.62108C4.35866 7.84608 4.33366 8.20441 4.52449 8.45441L4.63366 8.56274L8.42533 11.5211C8.89199 11.8877 9.45783 12.0877 10.0503 12.0877C10.6412 12.0877 11.217 11.8877 11.6828 11.5211L15.442 8.51274Z" fill="#9E9E9E"/>
</svg>
