<svg width="18" height="24" viewBox="0 0 18 24" fill="none" xmlns="http://www.w3.org/2000/svg">
<path fill-rule="evenodd" clip-rule="evenodd" d="M10.5232 0.877485C11.7951 0.743187 13.0947 1.06998 14.0693 1.63264C15.0438 2.1953 15.9766 3.15741 16.4963 4.32606C17.0303 5.52711 17.1447 7.0059 16.3247 8.42607L10.9747 17.6925C10.6814 18.2005 10.1108 18.8564 9.27844 19.2313C8.37791 19.6369 7.26182 19.6673 6.10256 18.998C4.9433 18.3287 4.41158 17.347 4.31257 16.3643C4.22104 15.456 4.5038 14.6338 4.79707 14.1259L9.55262 5.88901C9.88093 5.32038 10.608 5.12555 11.1767 5.45385C11.7453 5.78215 11.9401 6.50926 11.6118 7.0779L6.85628 15.3148C6.75326 15.4932 6.6475 15.8196 6.67836 16.1259C6.70174 16.3579 6.80333 16.657 7.29145 16.9388C7.77956 17.2206 8.08937 17.1591 8.30198 17.0633C8.58271 16.9369 8.81248 16.6821 8.9155 16.5037L14.2655 7.23718C14.6345 6.59814 14.6108 5.93807 14.3236 5.29215C14.022 4.61384 13.4502 4.02086 12.8804 3.69185C12.3105 3.36285 11.5111 3.16417 10.7728 3.24212C10.0699 3.31634 9.48641 3.62591 9.11746 4.26496L3.17302 14.561C2.3951 15.9084 2.83331 18.4833 5.50812 20.0276C8.18292 21.5719 10.632 20.664 11.4099 19.3166L15.571 12.1093C15.8993 11.5407 16.6264 11.3459 17.195 11.6742C17.7637 12.0025 17.9585 12.7296 17.6302 13.2982L13.4691 20.5055C11.8692 23.2765 7.82207 24.1092 4.31923 22.0869C0.816386 20.0645 -0.486058 16.1432 1.1138 13.3722L7.05824 3.07607C7.87818 1.6559 9.21601 1.0155 10.5232 0.877485Z" fill="#7A7A7A"/>
</svg>
