<svg width="276" height="251" viewBox="0 0 276 251" fill="none" xmlns="http://www.w3.org/2000/svg">
<g clip-path="url(#clip0_11_2756)">
<path d="M190.727 249.779H112.413C100.667 249.779 91.1104 240.233 91.1104 228.498V21.6886C91.1104 9.95474 100.667 0.408447 112.413 0.408447H190.727C202.473 0.408447 212.029 9.95474 212.029 21.6886C213.487 104.737 215.973 197.738 212.029 228.498C212.029 240.233 202.473 249.779 190.727 249.779L190.727 249.779Z" fill="#3F3D56"/>
<path d="M213.121 76.4799C212.624 76.4799 212.22 76.8837 212.22 77.3802V106.188C212.22 106.685 212.624 107.089 213.121 107.089C213.618 107.089 214.022 106.685 214.022 106.188V77.3802C214.022 76.8837 213.618 76.4799 213.121 76.4799Z" fill="#3F3D56"/>
<path d="M210.001 21.6887V228.495C210.001 238.708 202.044 247.063 191.982 247.711H191.977C191.829 247.72 191.68 247.729 191.527 247.733C191.261 247.747 190.995 247.751 190.725 247.751C190.725 247.751 189.733 247.679 187.922 247.544C186.093 247.409 183.43 247.207 180.109 246.941C179.113 246.865 178.063 246.779 176.954 246.689C174.747 246.509 172.322 246.311 169.722 246.086C168.686 246 167.614 245.906 166.519 245.811C160.922 245.33 154.654 244.767 148.044 244.128C146.927 244.024 145.8 243.916 144.665 243.804C144.367 243.772 93.1382 230.908 93.1382 228.495V21.6887C93.1382 11.0523 101.767 2.43233 112.415 2.43233H123.923C125.761 2.43233 127.239 3.86373 127.397 5.69575C127.411 5.81729 127.424 5.9388 127.447 6.06035C127.78 7.90138 129.47 9.18423 131.344 9.18423H171.795C173.67 9.18423 175.359 7.90138 175.693 6.06035C175.715 5.93881 175.729 5.81729 175.742 5.69575C175.9 3.86373 177.378 2.43233 179.216 2.43233H190.725C201.372 2.43233 210.001 11.0523 210.001 21.6887H210.001Z" fill="white"/>
<path d="M90.66 54.8738C90.163 54.8738 89.7588 55.2776 89.7588 55.7741V62.9761C89.7588 63.4726 90.163 63.8764 90.66 63.8764C91.157 63.8764 91.5612 63.4726 91.5612 62.9761V55.7741C91.5612 55.2776 91.157 54.8738 90.66 54.8738Z" fill="#3F3D56"/>
<path d="M90.66 76.4799C90.163 76.4799 89.7588 76.8837 89.7588 77.3802V91.3341C89.7588 91.8306 90.163 92.2343 90.66 92.2343C91.157 92.2343 91.5612 91.8306 91.5612 91.3341V77.3802C91.5612 76.8837 91.157 76.4799 90.66 76.4799V76.4799Z" fill="#3F3D56"/>
<path d="M90.66 96.2855C90.163 96.2855 89.7588 96.6892 89.7588 97.1857V111.14C89.7588 111.636 90.163 112.04 90.66 112.04C91.157 112.04 91.5612 111.636 91.5612 111.14V97.1857C91.5612 96.6892 91.157 96.2855 90.66 96.2855Z" fill="#3F3D56"/>
<path d="M123.627 5.58498H106.357C106.273 5.58498 106.206 5.65275 106.206 5.73636V7.68423C106.206 7.76783 106.273 7.83561 106.357 7.83561H123.627C123.711 7.83561 123.779 7.76783 123.779 7.68423V5.73636C123.779 5.65275 123.711 5.58498 123.627 5.58498Z" fill="#E6E6E6"/>
<path d="M182.065 7.83562C183.06 7.83562 183.867 7.0295 183.867 6.03511C183.867 5.04072 183.06 4.2346 182.065 4.2346C181.069 4.2346 180.262 5.04072 180.262 6.03511C180.262 7.0295 181.069 7.83562 182.065 7.83562Z" fill="#E6E6E6"/>
<path d="M187.021 7.83562C188.017 7.83562 188.824 7.0295 188.824 6.03511C188.824 5.04072 188.017 4.2346 187.021 4.2346C186.026 4.2346 185.219 5.04072 185.219 6.03511C185.219 7.0295 186.026 7.83562 187.021 7.83562Z" fill="#E6E6E6"/>
<path d="M191.978 7.83562C192.973 7.83562 193.78 7.0295 193.78 6.03511C193.78 5.04072 192.973 4.2346 191.978 4.2346C190.982 4.2346 190.175 5.04072 190.175 6.03511C190.175 7.0295 190.982 7.83562 191.978 7.83562Z" fill="#E6E6E6"/>
<path d="M6.99268 249.828C6.99268 250.15 7.2516 250.408 7.57403 250.408H275.419C275.741 250.408 276 250.15 276 249.828C276 249.506 275.741 249.247 275.419 249.247H7.57403C7.2516 249.247 6.99268 249.506 6.99268 249.828Z" fill="#CCCCCC"/>
<path d="M92.3932 246.014L86.9005 246.013L84.2876 224.849L92.3943 224.85L92.3932 246.014Z" fill="#FFB6B6"/>
<path d="M73.5747 245.889C73.4037 246.177 73.3135 247.106 73.3135 247.44C73.3135 248.469 74.1481 249.302 75.1777 249.302H92.1879C92.8902 249.302 93.4597 248.734 93.4597 248.032V247.325C93.4597 247.325 94.3011 245.198 92.5687 242.578C92.5687 242.578 90.4155 244.63 87.198 241.416L86.2492 239.699L79.3813 244.716L75.5745 245.184C74.7416 245.287 74.0032 245.168 73.5748 245.889H73.5747V245.889H73.5747Z" fill="#2F2E41"/>
<path d="M62.0178 216.617L56.5251 216.599L53.9795 195.427L62.0861 195.453L62.0178 216.617Z" fill="#FFB6B6"/>
<path d="M43.1998 216.433C43.0279 216.72 42.9347 217.649 42.9336 217.983C42.9303 219.012 43.7623 219.848 44.7919 219.852L61.802 219.906C62.5043 219.908 63.0756 219.341 63.0778 218.639L63.0801 217.932C63.0801 217.932 63.9283 215.808 62.2042 213.182C62.2042 213.182 60.0445 215.227 56.8372 212.003L55.8939 210.283L49.01 215.279L45.2017 215.735C44.3686 215.835 43.6306 215.714 43.1999 216.433H43.1998V216.433Z" fill="#2F2E41"/>
<path d="M84.3825 117.528L77.5433 118.016C77.5433 118.016 54.3902 131.167 52.4362 134.095C50.4821 137.023 47.7953 141.17 50.2379 145.562C52.6804 149.954 50.8214 203.133 50.8214 203.133L62.4933 200.495L69.9715 144.856L85.6038 142.66C85.6038 142.66 90.9774 154.241 89.0233 163.823C87.0693 173.404 86.0923 179.26 86.0923 179.26L83.6497 235.868L93.1756 235.624L101.725 183.164L116.38 141.684L97.328 119.236L84.3825 117.528Z" fill="#2F2E41"/>
<path d="M52.8471 112.821C50.0658 114.337 48.5943 117 49.5602 118.768C50.5261 120.536 53.5638 120.74 56.3451 119.224C57.5626 118.56 58.529 117.676 59.15 116.745L70.8543 110.172L67.6496 104.751L56.4516 111.806C55.3311 111.823 54.0646 112.157 52.8471 112.821H52.8471Z" fill="#FFB6B6"/>
<path d="M118.09 57.5043L103.923 58.9683L102.457 63.8483L88.779 71.1683L93.1756 101.912L89.756 107.28L91.2215 112.648C91.2215 112.648 87.3134 113.136 87.802 116.064L79.0088 117.528C79.0088 117.528 90.6715 119.907 93.1448 131.649C95.6181 143.392 116.135 144.856 116.135 144.856L132.256 94.5922L133.722 64.8243L122.486 61.8963L118.09 57.5043Z" fill="#E6E6E6"/>
<path d="M92.3178 71.396C92.3178 71.396 87.7297 69.651 86.1489 71.7515C84.5681 73.8521 74.1253 99.3405 74.1253 99.3405L58.8037 107.334L63.1123 114.829L82.8418 108.267L95.859 84.4854L92.3178 71.396Z" fill="#E6E6E6"/>
<path d="M237 155.103V206.831C237 211.405 233.275 215.127 228.695 215.127H100.706C96.1267 215.127 92.4014 211.405 92.4014 206.831V155.103C92.4014 150.529 96.1267 146.807 100.706 146.807H228.695C233.275 146.807 237 150.529 237 155.103Z" fill="white"/>
<path d="M237 155.103V206.831C237 211.405 233.275 215.127 228.695 215.127H100.706C96.1267 215.127 92.4014 211.405 92.4014 206.831V155.103C92.4014 150.529 96.1267 146.807 100.706 146.807H228.695C233.275 146.807 237 150.529 237 155.103ZM228.695 214.151C232.742 214.151 236.023 210.874 236.023 206.831V180.752C236.023 162.544 221.247 147.783 203.02 147.783H100.706C96.6591 147.783 93.3784 151.06 93.3784 155.103V206.831C93.3784 210.874 96.6591 214.151 100.706 214.151H228.695Z" fill="#3F3D56"/>
<path d="M149.855 178.059H133.138C132.716 178.059 132.374 178.402 132.374 178.823C132.374 179.244 132.716 179.586 133.138 179.586H149.855C150.276 179.586 150.619 179.244 150.619 178.823C150.619 178.402 150.276 178.059 149.855 178.059Z" fill="url(#paint0_linear_11_2756)"/>
<path d="M175.257 178.059H158.54C158.119 178.059 157.776 178.402 157.776 178.823C157.776 179.244 158.119 179.586 158.54 179.586H175.257C175.679 179.586 176.022 179.244 176.022 178.823C176.022 178.402 175.679 178.059 175.257 178.059Z" fill="url(#paint1_linear_11_2756)"/>
<path d="M149.855 186.407H133.138C132.716 186.407 132.374 186.749 132.374 187.17C132.374 187.591 132.716 187.934 133.138 187.934H149.855C150.276 187.934 150.619 187.591 150.619 187.17C150.619 186.749 150.276 186.407 149.855 186.407Z" fill="url(#paint2_linear_11_2756)"/>
<path d="M175.257 186.407H158.54C158.119 186.407 157.776 186.749 157.776 187.17C157.776 187.591 158.119 187.934 158.54 187.934H175.257C175.679 187.934 176.022 187.591 176.022 187.17C176.022 186.749 175.679 186.407 175.257 186.407Z" fill="url(#paint3_linear_11_2756)"/>
<path d="M201.424 187.17C201.424 186.749 201.082 186.407 200.66 186.407H183.943C183.522 186.407 183.179 186.749 183.179 187.17C183.179 187.591 183.522 187.934 183.943 187.934H200.66C201.082 187.934 201.424 187.591 201.424 187.17Z" fill="url(#paint4_linear_11_2756)"/>
<path d="M140.085 171.394C140.506 171.394 140.849 171.051 140.849 170.63C140.849 170.209 140.506 169.867 140.085 169.867H123.368C122.946 169.867 122.604 170.209 122.604 170.63C122.604 171.051 122.946 171.394 123.368 171.394H140.085Z" fill="url(#paint5_linear_11_2756)"/>
<path d="M189.317 171.083H206.034C206.455 171.083 206.798 170.741 206.798 170.32C206.798 169.899 206.455 169.556 206.034 169.556H189.317C188.895 169.556 188.552 169.899 188.552 170.32C188.552 170.741 188.895 171.083 189.317 171.083Z" fill="url(#paint6_linear_11_2756)"/>
<path d="M147.128 171.244H181.786C182.207 171.244 182.55 170.901 182.55 170.48C182.55 170.059 182.207 169.717 181.786 169.717H147.128C146.706 169.717 146.363 170.059 146.363 170.48C146.363 170.901 146.706 171.244 147.128 171.244Z" fill="url(#paint7_linear_11_2756)"/>
<path d="M160.764 193.991H144.047C143.625 193.991 143.282 194.334 143.282 194.755C143.282 195.176 143.625 195.518 144.047 195.518H160.764C161.185 195.518 161.528 195.176 161.528 194.755C161.528 194.334 161.185 193.991 160.764 193.991Z" fill="url(#paint8_linear_11_2756)"/>
<path d="M214.755 154.713V206.441C214.755 211.015 211.029 214.737 206.45 214.737H154.668C150.089 214.737 146.363 211.015 146.363 206.441V154.713C146.363 150.139 150.089 146.417 154.668 146.417H206.45C211.029 146.417 214.755 150.139 214.755 154.713Z" fill="white"/>
<path d="M214.755 154.713V206.441C214.755 211.015 211.029 214.737 206.45 214.737H154.668C150.089 214.737 146.363 211.015 146.363 206.441V154.713C146.363 150.139 150.089 146.417 154.668 146.417H206.45C211.029 146.417 214.755 150.139 214.755 154.713ZM203.238 213.761C209.059 213.761 213.778 209.047 213.778 203.232V180.362C213.778 162.154 199.002 147.393 180.774 147.393H154.668C150.621 147.393 147.34 150.67 147.34 154.713V199.224C147.34 207.252 153.856 213.761 161.893 213.761H203.238V213.761H203.238Z" fill="#3F3D56"/>
<path d="M187.452 167.544H170.735C170.314 167.544 169.971 167.201 169.971 166.78C169.971 166.359 170.314 166.017 170.735 166.017H187.452C187.874 166.017 188.216 166.359 188.216 166.78C188.216 167.201 187.874 167.544 187.452 167.544V167.544Z" fill="url(#paint9_linear_11_2756)"/>
<path d="M187.452 183.825H170.735C170.314 183.825 169.971 183.483 169.971 183.061C169.971 182.64 170.314 182.298 170.735 182.298H187.452C187.874 182.298 188.216 182.64 188.216 183.061C188.216 183.483 187.874 183.825 187.452 183.825V183.825Z" fill="url(#paint10_linear_11_2756)"/>
<path d="M179.147 206.273H162.43C162.009 206.273 161.666 205.93 161.666 205.509C161.666 205.088 162.009 204.746 162.43 204.746H179.147C179.569 204.746 179.912 205.088 179.912 205.509C179.912 205.93 179.569 206.273 179.147 206.273V206.273Z" fill="url(#paint11_linear_11_2756)"/>
<path d="M196.423 175.69H161.764C161.343 175.69 161 175.347 161 174.926C161 174.505 161.343 174.163 161.764 174.163H196.423C196.844 174.163 197.187 174.505 197.187 174.926C197.187 175.347 196.844 175.69 196.423 175.69V175.69Z" fill="url(#paint12_linear_11_2756)"/>
<path d="M205.011 126.049C205.011 109.913 191.358 101.036 175.762 96.8313C155.767 91.4408 141.123 102.349 146.514 126.049C147.735 131.421 150.657 137.695 154.274 143.061H182.976C192.564 136.826 205.011 138.574 205.011 126.049H205.011Z" fill="url(#paint13_linear_11_2756)"/>
<path d="M175.333 156.554C176.966 153.445 179.036 151.202 181.316 149.494H154.434C161.353 159.367 170.528 165.704 175.333 156.554Z" fill="url(#paint14_linear_11_2756)"/>
<path d="M172.231 108.775C173.957 108.775 175.356 110.172 175.356 111.896V118.139H169.106V111.896C169.106 110.172 170.505 108.775 172.231 108.775ZM176.919 118.139V111.896C176.919 109.31 174.82 107.214 172.231 107.214C169.642 107.214 167.544 109.31 167.544 111.896V118.139C165.818 118.139 164.419 119.537 164.419 121.261V129.065C164.419 130.789 165.818 132.187 167.544 132.187H176.919C178.644 132.187 180.043 130.789 180.043 129.065V121.261C180.043 119.537 178.644 118.139 176.919 118.139H176.919ZM167.544 119.7H176.919C177.781 119.7 178.481 120.399 178.481 121.261V129.065C178.481 129.927 177.781 130.626 176.919 130.626H167.544C166.681 130.626 165.981 129.927 165.981 129.065V121.261C165.981 120.399 166.681 119.7 167.544 119.7Z" fill="white"/>
<path d="M127.575 145.121C127.198 148.264 128.515 151.006 130.517 151.245C132.519 151.485 134.448 149.131 134.825 145.989C134.989 144.613 134.83 143.314 134.43 142.268L135.859 128.932L129.58 128.395L128.837 141.599C128.202 142.521 127.739 143.746 127.575 145.121Z" fill="#FFB6B6"/>
<path d="M28.5778 159.174C44.3608 159.174 57.1556 146.393 57.1556 130.626C57.1556 114.859 44.3608 102.078 28.5778 102.078C12.7947 102.078 0 114.859 0 130.626C0 146.393 12.7947 159.174 28.5778 159.174Z" fill="url(#paint15_linear_11_2756)"/>
<path d="M28.5777 117.846C30.5965 117.846 32.233 119.481 32.233 121.497V128.8H24.9224V121.497C24.9224 119.481 26.5589 117.846 28.5777 117.846ZM34.0607 128.8V121.497C34.0607 118.472 31.6059 116.02 28.5777 116.02C25.5496 116.02 23.0948 118.472 23.0948 121.497V128.8C21.076 128.8 19.4395 130.435 19.4395 132.452V141.58C19.4395 143.597 21.076 145.232 23.0948 145.232H34.0606C36.0794 145.232 37.7159 143.597 37.7159 141.58V132.452C37.7159 130.435 36.0794 128.8 34.0606 128.8H34.0607ZM23.0948 130.626H34.0606C35.07 130.626 35.8883 131.443 35.8883 132.452V141.58C35.8883 142.589 35.07 143.406 34.0606 143.406H23.0948C22.0854 143.406 21.2671 142.589 21.2671 141.58V132.452C21.2671 131.443 22.0854 130.626 23.0948 130.626Z" fill="white"/>
<path d="M129.081 65.5563C129.081 65.5563 135.92 63.6043 137.385 66.5323C138.851 69.4603 142.27 108.012 142.27 108.012L135.676 138.785L128.104 136.804L132.012 105.572L126.638 82.1483L129.081 65.5563Z" fill="#E6E6E6"/>
<path d="M110.623 55.6526C116.706 55.6526 121.636 50.7271 121.636 44.6511C121.636 38.5752 116.706 33.6497 110.623 33.6497C104.541 33.6497 99.6104 38.5752 99.6104 44.6511C99.6104 50.7271 104.541 55.6526 110.623 55.6526Z" fill="#FFB6B6"/>
<path d="M104.9 54.5763C104.9 54.5763 95.1294 54.0883 96.1065 46.2803C93.6882 37.9657 95.8287 32.5671 103.434 30.6644C103.434 30.6644 105.388 30.1764 105.877 30.1764C112.302 30.1764 115.647 32.1284 115.647 32.1284C115.647 32.1284 115.158 30.1956 115.647 30.674C116.135 31.1524 116.624 32.1284 116.624 32.1284C116.624 32.1284 121.509 34.5684 121.509 39.4484C121.509 44.3283 121.509 42.3763 121.509 42.3763C121.509 42.3763 120.532 42.3763 119.555 39.4484C118.578 36.5204 112.252 38.4724 112.252 38.4724L112.716 39.4484L111.25 38.9604L109.785 40.4244L108.808 39.9364C108.808 39.9364 104.9 39.9364 105.388 39.9364C105.877 39.9364 105.536 43.2528 105.536 43.2528L101.969 47.2563L105.877 54.5763H104.9Z" fill="#2F2E41"/>
</g>
<defs>
<linearGradient id="paint0_linear_11_2756" x1="135.107" y1="178.288" x2="135.302" y2="180.61" gradientUnits="userSpaceOnUse">
<stop stop-color="#01B98F"/>
<stop offset="1" stop-color="#019B77"/>
</linearGradient>
<linearGradient id="paint1_linear_11_2756" x1="160.51" y1="178.288" x2="160.704" y2="180.61" gradientUnits="userSpaceOnUse">
<stop stop-color="#01B98F"/>
<stop offset="1" stop-color="#019B77"/>
</linearGradient>
<linearGradient id="paint2_linear_11_2756" x1="135.107" y1="186.636" x2="135.302" y2="188.958" gradientUnits="userSpaceOnUse">
<stop stop-color="#01B98F"/>
<stop offset="1" stop-color="#019B77"/>
</linearGradient>
<linearGradient id="paint3_linear_11_2756" x1="160.51" y1="186.636" x2="160.704" y2="188.958" gradientUnits="userSpaceOnUse">
<stop stop-color="#01B98F"/>
<stop offset="1" stop-color="#019B77"/>
</linearGradient>
<linearGradient id="paint4_linear_11_2756" x1="185.912" y1="186.636" x2="186.107" y2="188.958" gradientUnits="userSpaceOnUse">
<stop stop-color="#01B98F"/>
<stop offset="1" stop-color="#019B77"/>
</linearGradient>
<linearGradient id="paint5_linear_11_2756" x1="125.337" y1="170.096" x2="125.531" y2="172.417" gradientUnits="userSpaceOnUse">
<stop stop-color="#01B98F"/>
<stop offset="1" stop-color="#019B77"/>
</linearGradient>
<linearGradient id="paint6_linear_11_2756" x1="191.286" y1="169.785" x2="191.48" y2="172.107" gradientUnits="userSpaceOnUse">
<stop stop-color="#01B98F"/>
<stop offset="1" stop-color="#019B77"/>
</linearGradient>
<linearGradient id="paint7_linear_11_2756" x1="151.785" y1="169.946" x2="151.883" y2="172.28" gradientUnits="userSpaceOnUse">
<stop stop-color="#01B98F"/>
<stop offset="1" stop-color="#019B77"/>
</linearGradient>
<linearGradient id="paint8_linear_11_2756" x1="146.016" y1="194.22" x2="146.21" y2="196.542" gradientUnits="userSpaceOnUse">
<stop stop-color="#01B98F"/>
<stop offset="1" stop-color="#019B77"/>
</linearGradient>
<linearGradient id="paint9_linear_11_2756" x1="172.704" y1="166.245" x2="172.899" y2="168.567" gradientUnits="userSpaceOnUse">
<stop stop-color="#01B98F"/>
<stop offset="1" stop-color="#019B77"/>
</linearGradient>
<linearGradient id="paint10_linear_11_2756" x1="172.704" y1="182.527" x2="172.899" y2="184.849" gradientUnits="userSpaceOnUse">
<stop stop-color="#01B98F"/>
<stop offset="1" stop-color="#019B77"/>
</linearGradient>
<linearGradient id="paint11_linear_11_2756" x1="164.4" y1="204.975" x2="164.594" y2="207.297" gradientUnits="userSpaceOnUse">
<stop stop-color="#01B98F"/>
<stop offset="1" stop-color="#019B77"/>
</linearGradient>
<linearGradient id="paint12_linear_11_2756" x1="166.422" y1="174.391" x2="166.52" y2="176.725" gradientUnits="userSpaceOnUse">
<stop stop-color="#01B98F"/>
<stop offset="1" stop-color="#019B77"/>
</linearGradient>
<linearGradient id="paint13_linear_11_2756" x1="154.32" y1="102.607" x2="189.84" y2="147.115" gradientUnits="userSpaceOnUse">
<stop stop-color="#01B98F"/>
<stop offset="1" stop-color="#019B77"/>
</linearGradient>
<linearGradient id="paint14_linear_11_2756" x1="158.461" y1="151.216" x2="164.821" y2="166.093" gradientUnits="userSpaceOnUse">
<stop stop-color="#01B98F"/>
<stop offset="1" stop-color="#019B77"/>
</linearGradient>
<linearGradient id="paint15_linear_11_2756" x1="8.56333" y1="110.632" x2="52.273" y2="154.388" gradientUnits="userSpaceOnUse">
<stop stop-color="#01B98F"/>
<stop offset="1" stop-color="#019B77"/>
</linearGradient>
<clipPath id="clip0_11_2756">
<rect width="276" height="250" fill="white" transform="translate(0 0.408447)"/>
</clipPath>
</defs>
</svg>
