<svg width="25" height="25" viewBox="0 0 25 25" fill="none" xmlns="http://www.w3.org/2000/svg">
<g clip-path="url(#clip0_11_3403)">
<path d="M24.0078 12.7873C24.0078 11.804 23.9295 11.0865 23.7598 10.3424H12.7295V14.7804H19.2041C19.0736 15.8833 18.3687 17.5442 16.8022 18.6603L16.7802 18.8089L20.2678 21.5591L20.5095 21.5836C22.7285 19.4975 24.0078 16.428 24.0078 12.7873Z" fill="#4285F4"/>
<path d="M12.7296 24.4803C15.9016 24.4803 18.5645 23.4173 20.5095 21.5836L16.8023 18.6603C15.8102 19.3646 14.4787 19.8562 12.7296 19.8562C9.6228 19.8562 6.98598 17.7701 6.04603 14.8867L5.90825 14.8986L2.2818 17.7555L2.23438 17.8897C4.1663 21.7962 8.13462 24.4803 12.7296 24.4803Z" fill="#34A853"/>
<path d="M6.04597 14.8867C5.79795 14.1426 5.65442 13.3453 5.65442 12.5215C5.65442 11.6976 5.79795 10.9004 6.03292 10.1563L6.02635 9.99784L2.35446 7.09512L2.23432 7.15329C1.43808 8.77439 0.981201 10.5948 0.981201 12.5215C0.981201 14.4482 1.43808 16.2685 2.23432 17.8896L6.04597 14.8867Z" fill="#FBBC05"/>
<path d="M12.7295 5.1868C14.9356 5.1868 16.4237 6.15679 17.2722 6.96738L20.5878 3.67206C18.5515 1.74537 15.9015 0.562775 12.7295 0.562775C8.13462 0.562775 4.1663 3.24684 2.23438 7.15334L6.03297 10.1564C6.98597 7.27297 9.62279 5.1868 12.7295 5.1868Z" fill="#EB4335"/>
</g>
<defs>
<clipPath id="clip0_11_3403">
<rect width="23.04" height="24" fill="white" transform="translate(0.97998 0.562744)"/>
</clipPath>
</defs>
</svg>
