<svg width="26" height="25" viewBox="0 0 26 25" fill="none" xmlns="http://www.w3.org/2000/svg">
<path fill-rule="evenodd" clip-rule="evenodd" d="M12.948 1.80127C10.2933 1.80127 8.14135 3.95326 8.14135 6.60788C8.14135 9.2625 10.2933 11.4145 12.948 11.4145C15.6026 11.4145 17.7546 9.2625 17.7546 6.60788C17.7546 3.95326 15.6026 1.80127 12.948 1.80127ZM9.65922 6.60788C9.65922 4.79156 11.1316 3.31915 12.948 3.31915C14.7643 3.31915 16.2367 4.79156 16.2367 6.60788C16.2367 8.4242 14.7643 9.89661 12.948 9.89661C11.1316 9.89661 9.65922 8.4242 9.65922 6.60788Z" fill="#037FFE"/>
<path d="M19.0195 3.82511C18.6003 3.82511 18.2605 4.16489 18.2605 4.58404C18.2605 5.00319 18.6003 5.34298 19.0195 5.34298C20.4124 5.34298 21.2963 6.25951 21.2963 7.11384C21.2963 7.96817 20.4124 8.8847 19.0195 8.8847C18.6003 8.8847 18.2605 9.22448 18.2605 9.64363C18.2605 10.0628 18.6003 10.4026 19.0195 10.4026C20.9798 10.4026 22.8142 9.05384 22.8142 7.11384C22.8142 5.17384 20.9798 3.82511 19.0195 3.82511Z" fill="#037FFE"/>
<path d="M7.63539 4.58404C7.63539 4.16489 7.2956 3.82511 6.87645 3.82511C4.91614 3.82511 3.08176 5.17384 3.08176 7.11384C3.08176 9.05384 4.91614 10.4026 6.87645 10.4026C7.2956 10.4026 7.63539 10.0628 7.63539 9.64363C7.63539 9.22448 7.2956 8.8847 6.87645 8.8847C5.48356 8.8847 4.59964 7.96817 4.59964 7.11384C4.59964 6.25951 5.48356 5.34298 6.87645 5.34298C7.2956 5.34298 7.63539 5.00319 7.63539 4.58404Z" fill="#037FFE"/>
<path fill-rule="evenodd" clip-rule="evenodd" d="M12.948 12.9324C11.1424 12.9324 9.47349 13.4189 8.23377 14.2454C6.99936 15.0683 6.11751 16.2885 6.11751 17.739C6.11751 19.1894 6.99936 20.4096 8.23377 21.2326C9.47349 22.0591 11.1424 22.5456 12.948 22.5456C14.7535 22.5456 16.4224 22.0591 17.6621 21.2326C18.8966 20.4096 19.7784 19.1894 19.7784 17.739C19.7784 16.2885 18.8966 15.0683 17.6621 14.2454C16.4224 13.4189 14.7535 12.9324 12.948 12.9324ZM7.63539 17.739C7.63539 16.954 8.1127 16.1503 9.07574 15.5083C10.0335 14.8698 11.4003 14.4502 12.948 14.4502C14.4956 14.4502 15.8624 14.8698 16.8202 15.5083C17.7832 16.1503 18.2605 16.954 18.2605 17.739C18.2605 18.524 17.7832 19.3276 16.8202 19.9696C15.8624 20.6081 14.4956 21.0277 12.948 21.0277C11.4003 21.0277 10.0335 20.6081 9.07574 19.9696C8.1127 19.3276 7.63539 18.524 7.63539 17.739Z" fill="#037FFE"/>
<path d="M20.302 14.5407C20.3918 14.1312 20.7964 13.8721 21.2059 13.9619C22.1792 14.1754 23.0563 14.5609 23.7075 15.0937C24.3581 15.6261 24.838 16.358 24.838 17.233C24.838 18.1081 24.3581 18.8399 23.7075 19.3723C23.0563 19.9051 22.1792 20.2907 21.2059 20.5041C20.7964 20.5939 20.3918 20.3348 20.302 19.9254C20.2122 19.516 20.4713 19.1113 20.8807 19.0215C21.6825 18.8457 22.3233 18.5436 22.7462 18.1976C23.1697 17.8511 23.3201 17.5126 23.3201 17.233C23.3201 16.9534 23.1697 16.615 22.7462 16.2685C22.3233 15.9224 21.6825 15.6204 20.8807 15.4445C20.4713 15.3548 20.2122 14.9501 20.302 14.5407Z" fill="#037FFE"/>
<path d="M4.69005 13.9619C5.09947 13.8721 5.50415 14.1312 5.59394 14.5407C5.68372 14.9501 5.4246 15.3548 5.01518 15.4445C4.21337 15.6204 3.57259 15.9224 3.14968 16.2685C2.7262 16.615 2.5758 16.9534 2.5758 17.233C2.5758 17.5126 2.7262 17.8511 3.14968 18.1976C3.57259 18.5436 4.21337 18.8457 5.01518 19.0215C5.4246 19.1113 5.68372 19.516 5.59394 19.9254C5.50415 20.3348 5.09947 20.5939 4.69005 20.5041C3.7167 20.2907 2.83961 19.9051 2.18843 19.3723C1.53782 18.8399 1.05792 18.1081 1.05792 17.233C1.05792 16.358 1.53782 15.6261 2.18843 15.0937C2.83961 14.5609 3.7167 14.1754 4.69005 13.9619Z" fill="#037FFE"/>
</svg>
