<svg width="45" height="46" viewBox="0 0 45 46" fill="none" xmlns="http://www.w3.org/2000/svg">
<path d="M22.3496 0.334961C28.7155 0.334985 34.4597 2.99657 38.5303 7.26758H30.1689V7.25781H15.6982L12.5859 22.1494H20.1572C21.5733 22.1494 22.7091 22.3811 23.5645 22.8438C24.4336 23.2924 25.0579 23.9019 25.4365 24.6729C25.8291 25.4299 26.0253 26.2645 26.0254 27.1758C26.0254 28.0871 25.8012 28.9216 25.3525 29.6787C24.9038 30.4219 24.3076 31.0181 23.5645 31.4668C22.8214 31.9014 21.9943 32.1191 21.083 32.1191C20.1716 32.1191 19.3373 31.9015 18.5801 31.4668C17.8369 31.0181 17.2407 30.4219 16.792 29.6787C16.3435 28.9216 16.1191 28.087 16.1191 27.1758H10.9873C10.9873 28.9986 11.4291 30.6747 12.3125 32.2031C13.2099 33.7314 14.4228 34.9584 15.9512 35.8838C17.4795 36.7952 19.1901 37.251 21.083 37.251C22.4852 37.251 23.7892 36.9915 24.9951 36.4727C26.215 35.9398 27.2875 35.2106 28.2129 34.2852C29.1383 33.3597 29.8611 32.2873 30.3799 31.0674C30.8987 29.8475 31.1582 28.5499 31.1582 27.1758C31.1581 25.297 30.7228 23.6077 29.8535 22.1074C28.9982 20.5931 27.8067 19.3867 26.2783 18.4893C24.75 17.5919 22.9901 17.1082 20.999 17.0381L18.917 17.0176L19.8633 12.3896H30.1689V12.3809H42.1855C43.7904 15.4642 44.6992 18.9681 44.6992 22.6846C44.6991 35.0278 34.6928 45.0341 22.3496 45.0342C10.0064 45.0342 7.93771e-05 35.0278 0 22.6846C0 10.3413 10.0063 0.334961 22.3496 0.334961Z" fill="white"/>
</svg>
