<svg width="24" height="25" viewBox="0 0 24 25" fill="none" xmlns="http://www.w3.org/2000/svg">
<path d="M22 17.9104C21.9996 19.278 21.5321 20.6044 20.675 21.6701C19.8179 22.7357 18.6226 23.4767 17.287 23.7704L16.649 21.8564C17.2332 21.7602 17.7888 21.5356 18.2758 21.1987C18.7627 20.8619 19.1689 20.4212 19.465 19.9084H17C16.4696 19.9084 15.9609 19.6977 15.5858 19.3227C15.2107 18.9476 15 18.4389 15 17.9084V13.9084C15 13.378 15.2107 12.8693 15.5858 12.4942C15.9609 12.1192 16.4696 11.9084 17 11.9084H19.938C19.694 9.97534 18.7529 8.19772 17.2914 6.90912C15.8299 5.62053 13.9484 4.90952 12 4.90952C10.0516 4.90952 8.17007 5.62053 6.70857 6.90912C5.24708 8.19772 4.30603 9.97534 4.062 11.9084H7C7.53043 11.9084 8.03914 12.1192 8.41421 12.4942C8.78929 12.8693 9 13.378 9 13.9084V17.9084C9 18.4389 8.78929 18.9476 8.41421 19.3227C8.03914 19.6977 7.53043 19.9084 7 19.9084H4C3.46957 19.9084 2.96086 19.6977 2.58579 19.3227C2.21071 18.9476 2 18.4389 2 17.9084V12.9084C2 7.38545 6.477 2.90845 12 2.90845C17.523 2.90845 22 7.38545 22 12.9084V17.9104Z" fill="#00AB83"/>
</svg>
