<svg width="18" height="19" viewBox="0 0 18 19" fill="none" xmlns="http://www.w3.org/2000/svg">
<path d="M17.9471 6.21344C17.937 5.45606 17.7952 4.70621 17.5281 3.99744C17.2964 3.39959 16.9426 2.85663 16.4892 2.40327C16.0359 1.9499 15.4929 1.59609 14.8951 1.36443C14.1954 1.10179 13.4562 0.959776 12.7091 0.944435C11.7471 0.901435 11.4421 0.889435 9.00007 0.889435C6.55807 0.889435 6.24507 0.889435 5.29007 0.944435C4.54323 0.959889 3.80442 1.1019 3.10507 1.36443C2.50713 1.59592 1.96409 1.94968 1.5107 2.40307C1.05732 2.85646 0.703559 3.39949 0.47207 3.99744C0.208901 4.69657 0.0671935 5.43555 0.0530703 6.18244C0.0100703 7.14543 -0.00292969 7.45044 -0.00292969 9.89244C-0.00292969 12.3344 -0.00292969 12.6464 0.0530703 13.6024C0.0680703 14.3504 0.20907 15.0884 0.47207 15.7894C0.703948 16.3872 1.05797 16.93 1.51151 17.3832C1.96505 17.8364 2.50813 18.19 3.10607 18.4214C3.8035 18.6946 4.54244 18.8468 5.29107 18.8714C6.25407 18.9144 6.55907 18.9274 9.00107 18.9274C11.4431 18.9274 11.7561 18.9274 12.7111 18.8714C13.4582 18.8567 14.1974 18.715 14.8971 18.4524C15.4948 18.2205 16.0376 17.8666 16.4909 17.4133C16.9442 16.9599 17.2982 16.4171 17.5301 15.8194C17.7931 15.1194 17.9341 14.3814 17.9491 13.6324C17.9921 12.6704 18.0051 12.3654 18.0051 9.92243C18.0031 7.48043 18.0031 7.17043 17.9471 6.21344ZM8.99407 14.5104C6.44007 14.5104 4.37107 12.4414 4.37107 9.88743C4.37107 7.33344 6.44007 5.26443 8.99407 5.26443C10.2202 5.26443 11.396 5.7515 12.263 6.61848C13.13 7.48546 13.6171 8.66134 13.6171 9.88743C13.6171 11.1135 13.13 12.2894 12.263 13.1564C11.396 14.0234 10.2202 14.5104 8.99407 14.5104ZM13.8011 6.17143C13.6595 6.17157 13.5192 6.14377 13.3884 6.08965C13.2575 6.03552 13.1386 5.95612 13.0385 5.85599C12.9384 5.75586 12.859 5.63697 12.8049 5.50612C12.7507 5.37527 12.7229 5.23504 12.7231 5.09343C12.7231 4.95194 12.7509 4.81182 12.8051 4.68109C12.8592 4.55037 12.9386 4.43158 13.0387 4.33153C13.1387 4.23147 13.2575 4.1521 13.3882 4.09795C13.519 4.04381 13.6591 4.01593 13.8006 4.01593C13.9421 4.01593 14.0822 4.04381 14.2129 4.09795C14.3436 4.1521 14.4624 4.23147 14.5625 4.33153C14.6625 4.43158 14.7419 4.55037 14.7961 4.68109C14.8502 4.81182 14.8781 4.95194 14.8781 5.09343C14.8781 5.68944 14.3961 6.17143 13.8011 6.17143Z" fill="#00AB83"/>
</svg>
