<svg width="130" height="131" viewBox="0 0 130 131" fill="none" xmlns="http://www.w3.org/2000/svg">
<g clip-path="url(#clip0_79_746)">
<path d="M65.0001 0.408447C45.734 0.432399 30.1213 16.2376 30.0977 35.7417V57.4852C30.0977 58.9862 31.2998 60.2032 32.7825 60.2032H43.5218C45.0046 60.2032 46.2067 58.9862 46.2067 57.4852V35.7417C46.2064 25.234 54.6207 16.7161 65.0001 16.7161C75.3794 16.7161 83.7937 25.234 83.7937 35.7417V57.4852C83.7937 58.9862 84.9958 60.2032 86.4786 60.2032H97.2176C98.7004 60.2032 99.9025 58.9862 99.9025 57.4852V35.7417C99.8788 16.2376 84.2662 0.432399 65.0001 0.408447Z" fill="#455A64"/>
<path d="M32.7823 54.7672H97.2173C104.631 54.7672 110.641 60.8514 110.641 68.3568V117.28C110.641 124.785 104.631 130.87 97.2173 130.87H32.7823C25.3685 130.87 19.3584 124.785 19.3584 117.28V68.357C19.3584 60.8514 25.3685 54.7672 32.7823 54.7672Z" fill="#FFC107"/>
<path d="M78.4241 84.6647C78.4553 77.1593 72.4706 71.0493 65.0568 71.0177C57.643 70.9861 51.6075 77.0447 51.5763 84.55C51.5657 87.0928 52.26 89.5876 53.5803 91.7508C54.9007 93.9139 56.7941 95.6587 59.0452 96.7866L56.9725 111.463C56.7648 112.95 57.7867 114.325 59.2549 114.535C59.3792 114.553 59.5048 114.562 59.6304 114.562H70.3697C71.8524 114.577 73.0666 113.373 73.0815 111.872C73.0827 111.733 73.0739 111.595 73.0543 111.458L70.9816 96.7812C73.2063 95.6542 75.0792 93.9255 76.3929 91.7869C77.7066 89.6482 78.4096 87.1831 78.4241 84.6647Z" fill="#455A64"/>
</g>
<defs>
<clipPath id="clip0_79_746">
<rect width="128.87" height="130.461" fill="white" transform="translate(0.564453 0.408447)"/>
</clipPath>
</defs>
</svg>
