<svg width="19" height="18" viewBox="0 0 19 18" fill="none" xmlns="http://www.w3.org/2000/svg">
<path d="M8.56543 0.842316C10.6933 0.842364 12.4287 2.54803 12.4287 4.64798V8.75345H7.19629C6.82134 8.75345 6.52449 9.0451 6.52441 9.4136C6.52441 9.7736 6.82129 10.0738 7.19629 10.0738H12.4287V8.75345H15.9775L14.6055 7.39114C14.3485 7.13401 14.3484 6.71368 14.6055 6.45657C14.8625 6.19094 15.2829 6.19086 15.54 6.44778L18.043 8.9429C18.1713 9.07136 18.2402 9.23383 18.2402 9.4136C18.2402 9.58496 18.1714 9.7565 18.043 9.8765L15.54 12.3706C15.4115 12.4992 15.24 12.5679 15.0771 12.5679C14.9057 12.5679 14.734 12.4992 14.6055 12.3706C14.3488 12.1136 14.3487 11.6941 14.6055 11.437L15.9775 10.0738H12.4287V14.1704C12.4287 16.2704 10.6932 17.9849 8.54785 17.9849H4.30078C2.16416 17.9849 0.428711 16.2792 0.428711 14.1792V4.65677C0.428711 2.5482 2.17294 0.842316 4.30957 0.842316H8.56543Z" fill="url(#paint0_linear_83_2445)"/>
<defs>
<linearGradient id="paint0_linear_83_2445" x1="18.2402" y1="17.9849" x2="-2.82391" y2="11.6392" gradientUnits="userSpaceOnUse">
<stop stop-color="#FF5A5F"/>
<stop offset="1" stop-color="#FF8A9B"/>
</linearGradient>
</defs>
</svg>
