<svg width="191" height="160" viewBox="0 0 191 160" fill="none" xmlns="http://www.w3.org/2000/svg">
<g clip-path="url(#clip0_1077_5788)">
<path fill-rule="evenodd" clip-rule="evenodd" d="M12.056 143.886C12.1137 143.634 12.1801 143.39 12.2571 143.15C12.3724 142.789 12.5359 142.445 12.6699 142.093C12.7267 141.943 12.8687 141.55 12.8988 141.498C13.1636 141.042 13.584 141.129 13.7035 141.163C13.762 141.178 14.3547 141.35 14.2166 142.028C14.0483 142.859 13.7759 143.652 13.409 144.388C13.2659 145.083 13.2118 145.812 13.2508 146.509C13.4061 149.279 15.4327 150.382 17.7379 151.312C18.0932 151.453 18.2717 151.852 18.1447 152.21C18.0166 152.572 17.6269 152.769 17.2621 152.655C15.9271 152.247 13.2232 152.333 11.9918 153.078C11.7341 153.235 11.4141 153.736 11.0676 154.214C10.5856 154.877 10.0734 155.519 9.71083 155.727C9.65577 155.76 9.02455 156.067 8.86674 156.086C8.48844 156.127 8.28213 155.927 8.17915 155.779C8.07618 155.631 7.99081 155.389 8.04886 155.069C8.10947 154.736 8.42572 154.131 8.4712 153.992C8.63604 153.488 8.93538 152.489 9.07731 151.583C9.15361 151.095 9.20857 150.639 9.10326 150.357C8.71335 149.314 7.54561 148.96 6.54952 148.693C6.43556 148.661 6.32051 148.632 6.20682 148.6C5.77521 148.554 5.33188 148.47 4.87953 148.341C4.19611 148.147 4.33721 147.504 4.34781 147.462C4.37176 147.37 4.51253 146.902 5.07812 146.926C5.13936 146.93 5.57086 147.007 5.73738 147.036C5.96928 147.076 6.19918 147.128 6.42878 147.183C8.94019 147.413 10.9535 145.971 12.056 143.886ZM11.8255 146.601C11.9458 148.686 12.8726 150.054 14.226 151.06L14.2258 151.06C13.0779 151.163 11.9638 151.425 11.252 151.856C10.9821 152.02 10.6279 152.427 10.2653 152.898C10.3925 152.372 10.5056 151.804 10.5535 151.298C10.6086 150.721 10.5732 150.208 10.4422 149.857C10.189 149.18 9.72991 148.671 9.17093 148.282C10.177 147.935 11.0718 147.353 11.8255 146.601Z" fill="white"/>
</g>
<g clip-path="url(#clip1_1077_5788)">
<path fill-rule="evenodd" clip-rule="evenodd" d="M184.205 61.9775C184.243 61.816 184.285 61.6588 184.335 61.5044C184.409 61.2728 184.514 61.052 184.6 60.8254C184.636 60.7292 184.728 60.4769 184.747 60.4431C184.917 60.15 185.187 60.2063 185.264 60.2281C185.302 60.2377 185.683 60.3479 185.594 60.7841C185.486 61.3176 185.311 61.8273 185.075 62.3C184.983 62.7468 184.948 63.2153 184.973 63.6629C185.073 65.4431 186.375 66.1516 187.857 66.7494C188.085 66.8401 188.2 67.0962 188.118 67.3267C188.036 67.5589 187.785 67.6857 187.551 67.6124C186.693 67.3504 184.955 67.4056 184.164 67.8846C183.999 67.9849 183.793 68.3071 183.57 68.6143C183.261 69.0404 182.932 69.4525 182.699 69.5865C182.663 69.6076 182.258 69.8052 182.156 69.8169C181.913 69.8433 181.78 69.7149 181.714 69.6199C181.648 69.5249 181.593 69.369 181.631 69.1639C181.67 68.9495 181.873 68.5607 181.902 68.4715C182.008 68.1477 182.2 67.506 182.291 66.9238C182.34 66.6102 182.376 66.3168 182.308 66.1358C182.058 65.4656 181.307 65.2382 180.667 65.0664C180.594 65.046 180.52 65.0273 180.447 65.0069C180.17 64.9775 179.885 64.923 179.594 64.8403C179.155 64.716 179.246 64.3025 179.252 64.2755C179.268 64.2163 179.358 63.9159 179.722 63.9314C179.761 63.9338 180.038 63.983 180.145 64.0015C180.294 64.0275 180.442 64.0609 180.59 64.0962C182.203 64.2442 183.497 63.3175 184.205 61.9775ZM184.057 63.7226C184.135 65.0623 184.73 65.941 185.6 66.5875L185.6 66.5874C184.862 66.6534 184.146 66.8219 183.689 67.0994C183.515 67.2044 183.288 67.4658 183.055 67.7687C183.137 67.4309 183.209 67.0656 183.24 66.7405C183.275 66.3696 183.253 66.0403 183.169 65.8146C183.006 65.3795 182.711 65.0526 182.352 64.8024C182.998 64.5794 183.573 64.2056 184.057 63.7226Z" fill="#CFD0D5"/>
</g>
<g clip-path="url(#clip2_1077_5788)">
<path fill-rule="evenodd" clip-rule="evenodd" d="M8.36329 4.55102C8.40659 4.36252 8.4564 4.17907 8.51413 3.99887C8.60062 3.72853 8.72318 3.4708 8.82373 3.20628C8.8663 3.09403 8.97279 2.7995 8.99536 2.76015C9.19396 2.41796 9.50933 2.48367 9.59895 2.50921C9.64279 2.52041 10.0873 2.64895 9.98374 3.15808C9.85749 3.78075 9.6532 4.37571 9.378 4.92739C9.27071 5.44889 9.23017 5.99573 9.25936 6.51811C9.37589 8.59596 10.8958 9.42288 12.6247 10.1206C12.8912 10.2264 13.025 10.5254 12.9298 10.7945C12.8337 11.0655 12.5414 11.2134 12.2679 11.1279C11.2666 10.8221 9.23868 10.8865 8.31513 11.4455C8.12188 11.5626 7.88187 11.9387 7.62198 12.2972C7.2605 12.7946 6.87634 13.2756 6.60441 13.432C6.56312 13.4566 6.0897 13.6873 5.97134 13.7009C5.68762 13.7318 5.53288 13.5818 5.45565 13.471C5.37842 13.3601 5.3144 13.1782 5.35793 12.9387C5.40339 12.6885 5.64058 12.2347 5.67469 12.1306C5.79832 11.7527 6.02282 11.0037 6.12927 10.3241C6.1865 9.95817 6.22771 9.61572 6.14873 9.4044C5.85631 8.62217 4.9805 8.35673 4.23343 8.15621C4.14796 8.1324 4.06167 8.11057 3.97641 8.08684C3.6527 8.05246 3.3202 7.9889 2.98094 7.89241C2.46837 7.7473 2.5742 7.26462 2.58215 7.23312C2.60011 7.16402 2.70569 6.81345 3.12988 6.83148C3.17581 6.83428 3.49943 6.89181 3.62432 6.9134C3.79825 6.94372 3.97067 6.9827 4.14288 7.02389C6.02643 7.1966 7.53642 6.11506 8.36329 4.55102ZM8.19041 6.58784C8.28062 8.15145 8.97576 9.17707 9.99081 9.93164L9.99061 9.93156C9.1297 10.0086 8.29416 10.2052 7.76031 10.5291C7.55784 10.6516 7.29225 10.9568 7.02028 11.3103C7.11566 10.9161 7.2005 10.4896 7.23641 10.1102C7.27774 9.67734 7.25121 9.29293 7.15298 9.02955C6.96303 8.52174 6.61872 8.14017 6.19949 7.84818C6.95402 7.58788 7.62515 7.15155 8.19041 6.58784Z" fill="white"/>
</g>
<circle cx="89.2832" cy="86.5469" r="60" fill="#28323C"/>
<mask id="mask0_1077_5788" style="mask-type:alpha" maskUnits="userSpaceOnUse" x="29" y="26" width="120" height="121">
<circle cx="89" cy="86.5469" r="60" fill="#2BBFFF"/>
</mask>
<g mask="url(#mask0_1077_5788)">
<g filter="url(#filter0_d_1077_5788)">
<rect x="50" y="58.144" width="70.0593" height="90.8571" rx="10" fill="#12171D"/>
</g>
<rect x="54.4912" y="73.5723" width="61.0773" height="76.2857" rx="6" fill="url(#paint0_linear_1077_5788)"/>
<rect x="76.0479" y="67.5723" width="18.8621" height="1.71429" rx="0.857143" fill="#CFD0D5"/>
<rect x="58.9824" y="116.43" width="38.6224" height="2.57143" rx="1.28571" fill="white"/>
<rect x="58.9824" y="87.2871" width="21.5567" height="20.5714" rx="4" fill="white"/>
<rect x="58.9824" y="122.43" width="29.6405" height="2.57143" rx="1.28571" fill="white"/>
<g clip-path="url(#clip3_1077_5788)">
<path d="M72.5501 96.5656L66.6026 97.2287C65.9456 97.302 65.4753 97.8695 65.5521 98.4965L65.969 101.902C66.0457 102.529 66.6405 102.978 67.2975 102.904L73.245 102.241C73.9019 102.168 74.3723 101.6 74.2955 100.973L73.8786 97.5681C73.8018 96.9412 73.2071 96.4923 72.5501 96.5656Z" stroke="url(#paint1_linear_1077_5788)" stroke-width="1.5" stroke-linecap="round" stroke-linejoin="round"/>
<path d="M69.9935 100.303C70.322 100.266 70.5571 99.9823 70.5188 99.6688C70.4804 99.3554 70.183 99.131 69.8545 99.1676C69.526 99.2042 69.2909 99.488 69.3293 99.8015C69.3676 100.115 69.665 100.339 69.9935 100.303Z" stroke="url(#paint2_linear_1077_5788)" stroke-width="1.5" stroke-linecap="round" stroke-linejoin="round"/>
<path d="M67.1977 97.1628L66.8502 94.325C66.7765 93.7228 66.9564 93.1174 67.3505 92.6419C67.7445 92.1664 68.3203 91.8598 68.9513 91.7894C69.5822 91.7191 70.2166 91.8908 70.7149 92.2668C71.2132 92.6428 71.5345 93.1923 71.6082 93.7945" stroke="url(#paint3_linear_1077_5788)" stroke-width="1.5" stroke-linecap="round" stroke-linejoin="round"/>
</g>
</g>
<g filter="url(#filter1_d_1077_5788)">
<mask id="path-15-inside-1_1077_5788" fill="white">
<path fill-rule="evenodd" clip-rule="evenodd" d="M94.5877 81.0161C94.2832 81.7512 94.2832 82.6831 94.2832 84.5469V98.2703C94.2832 100.134 94.2832 101.066 94.5877 101.801C94.9937 102.781 95.7724 103.56 96.7525 103.966C97.4876 104.27 98.4194 104.27 100.283 104.27H102.074C102.986 104.27 103.782 104.887 104.01 105.77L104.73 108.559C105.091 109.957 106.769 110.524 107.904 109.631L114.171 104.699C114.524 104.421 114.959 104.27 115.408 104.27H150.283C152.147 104.27 153.079 104.27 153.814 103.966C154.794 103.56 155.573 102.781 155.979 101.801C156.283 101.066 156.283 100.134 156.283 98.2703V84.5469C156.283 82.6831 156.283 81.7512 155.979 81.0161C155.573 80.036 154.794 79.2573 153.814 78.8514C153.079 78.5469 152.147 78.5469 150.283 78.5469H100.283C98.4194 78.5469 97.4876 78.5469 96.7525 78.8514C95.7724 79.2573 94.9937 80.036 94.5877 81.0161Z"/>
</mask>
<path fill-rule="evenodd" clip-rule="evenodd" d="M94.5877 81.0161C94.2832 81.7512 94.2832 82.6831 94.2832 84.5469V98.2703C94.2832 100.134 94.2832 101.066 94.5877 101.801C94.9937 102.781 95.7724 103.56 96.7525 103.966C97.4876 104.27 98.4194 104.27 100.283 104.27H102.074C102.986 104.27 103.782 104.887 104.01 105.77L104.73 108.559C105.091 109.957 106.769 110.524 107.904 109.631L114.171 104.699C114.524 104.421 114.959 104.27 115.408 104.27H150.283C152.147 104.27 153.079 104.27 153.814 103.966C154.794 103.56 155.573 102.781 155.979 101.801C156.283 101.066 156.283 100.134 156.283 98.2703V84.5469C156.283 82.6831 156.283 81.7512 155.979 81.0161C155.573 80.036 154.794 79.2573 153.814 78.8514C153.079 78.5469 152.147 78.5469 150.283 78.5469H100.283C98.4194 78.5469 97.4876 78.5469 96.7525 78.8514C95.7724 79.2573 94.9937 80.036 94.5877 81.0161Z" fill="#12171D"/>
<path d="M94.5877 81.0161L93.6638 80.6335H93.6638L94.5877 81.0161ZM94.5877 101.801L93.6638 102.184H93.6638L94.5877 101.801ZM96.7525 103.966L96.3698 104.89L96.7525 103.966ZM153.814 103.966L154.197 104.89L153.814 103.966ZM155.979 101.801L156.903 102.184L155.979 101.801ZM155.979 81.0161L156.903 80.6335L155.979 81.0161ZM153.814 78.8514L154.197 77.9275V77.9275L153.814 78.8514ZM96.7525 78.8514L96.3698 77.9275V77.9275L96.7525 78.8514ZM114.171 104.699L114.79 105.484L114.171 104.699ZM107.904 109.631L108.522 110.417L107.904 109.631ZM104.01 105.77L104.979 105.52L104.01 105.77ZM95.2832 84.5469C95.2832 83.6013 95.2837 82.9422 95.3189 82.4263C95.3535 81.9194 95.4182 81.6242 95.5116 81.3988L93.6638 80.6335C93.4527 81.1432 93.3651 81.6814 93.3236 82.2902C93.2827 82.8899 93.2832 83.6287 93.2832 84.5469H95.2832ZM95.2832 98.2703V84.5469H93.2832V98.2703H95.2832ZM95.5116 101.418C95.4182 101.193 95.3535 100.898 95.3189 100.391C95.2837 99.8749 95.2832 99.2158 95.2832 98.2703H93.2832C93.2832 99.1885 93.2827 99.9272 93.3236 100.527C93.3651 101.136 93.4527 101.674 93.6638 102.184L95.5116 101.418ZM97.1352 103.042C96.4001 102.737 95.816 102.153 95.5116 101.418L93.6638 102.184C94.1713 103.409 95.1446 104.382 96.3698 104.89L97.1352 103.042ZM100.283 103.27C99.3376 103.27 98.6785 103.27 98.1627 103.235C97.6557 103.2 97.3605 103.135 97.1352 103.042L96.3698 104.89C96.8795 105.101 97.4178 105.188 98.0265 105.23C98.6263 105.271 99.365 105.27 100.283 105.27V103.27ZM102.074 103.27H100.283V105.27H102.074V103.27ZM105.698 108.309L104.979 105.52L103.042 106.02L103.762 108.809L105.698 108.309ZM113.553 103.913L107.285 108.845L108.522 110.417L114.79 105.484L113.553 103.913ZM150.283 103.27H115.408V105.27H150.283V103.27ZM153.431 103.042C153.206 103.135 152.911 103.2 152.404 103.235C151.888 103.27 151.229 103.27 150.283 103.27V105.27C151.201 105.27 151.94 105.271 152.54 105.23C153.149 105.188 153.687 105.101 154.197 104.89L153.431 103.042ZM155.055 101.418C154.75 102.153 154.166 102.737 153.431 103.042L154.197 104.89C155.422 104.382 156.395 103.409 156.903 102.184L155.055 101.418ZM155.283 98.2703C155.283 99.2158 155.283 99.8749 155.247 100.391C155.213 100.898 155.148 101.193 155.055 101.418L156.903 102.184C157.114 101.674 157.201 101.136 157.243 100.527C157.284 99.9272 157.283 99.1885 157.283 98.2703H155.283ZM155.283 84.5469V98.2703H157.283V84.5469H155.283ZM155.055 81.3988C155.148 81.6242 155.213 81.9194 155.247 82.4263C155.283 82.9422 155.283 83.6013 155.283 84.5469H157.283C157.283 83.6287 157.284 82.8899 157.243 82.2902C157.201 81.6814 157.114 81.1432 156.903 80.6335L155.055 81.3988ZM153.431 79.7752C154.166 80.0797 154.75 80.6637 155.055 81.3988L156.903 80.6335C156.395 79.4083 155.422 78.4349 154.197 77.9275L153.431 79.7752ZM150.283 79.5469C151.229 79.5469 151.888 79.5474 152.404 79.5826C152.911 79.6172 153.206 79.6819 153.431 79.7752L154.197 77.9275C153.687 77.7164 153.149 77.6288 152.54 77.5873C151.94 77.5463 151.201 77.5469 150.283 77.5469V79.5469ZM100.283 79.5469H150.283V77.5469H100.283V79.5469ZM97.1352 79.7752C97.3605 79.6819 97.6557 79.6172 98.1627 79.5826C98.6785 79.5474 99.3376 79.5469 100.283 79.5469V77.5469C99.365 77.5469 98.6263 77.5463 98.0265 77.5873C97.4178 77.6288 96.8795 77.7164 96.3698 77.9275L97.1352 79.7752ZM95.5116 81.3988C95.816 80.6637 96.4001 80.0797 97.1352 79.7752L96.3698 77.9275C95.1446 78.4349 94.1713 79.4083 93.6638 80.6335L95.5116 81.3988ZM114.79 105.484C114.966 105.346 115.184 105.27 115.408 105.27V103.27C114.735 103.27 114.082 103.497 113.553 103.913L114.79 105.484ZM103.762 108.809C104.303 110.906 106.82 111.756 108.522 110.417L107.285 108.845C106.718 109.291 105.879 109.008 105.698 108.309L103.762 108.809ZM102.074 105.27C102.53 105.27 102.928 105.579 103.042 106.02L104.979 105.52C104.637 104.196 103.442 103.27 102.074 103.27V105.27Z" fill="#28323C" mask="url(#path-15-inside-1_1077_5788)"/>
</g>
<path d="M105.209 88.0581C105.296 87.7752 105.696 87.7752 105.783 88.0581L106.202 89.4282C106.257 89.6085 106.463 89.6938 106.63 89.6053L107.895 88.9331C108.157 88.7943 108.44 89.0775 108.301 89.3388L107.629 90.6042C107.54 90.7707 107.626 90.9766 107.806 91.0318L109.176 91.4513C109.459 91.5379 109.459 91.9384 109.176 92.025L107.806 92.4444C107.626 92.4996 107.54 92.7055 107.629 92.872L108.301 94.1374C108.44 94.3987 108.157 94.6819 107.895 94.5431L106.63 93.8709C106.463 93.7824 106.257 93.8677 106.202 94.048L105.783 95.4181C105.696 95.701 105.296 95.701 105.209 95.4181L104.79 94.048C104.734 93.8677 104.529 93.7824 104.362 93.8709L103.097 94.5431C102.835 94.6819 102.552 94.3987 102.691 94.1374L103.363 92.872C103.452 92.7055 103.366 92.4996 103.186 92.4444L101.816 92.025C101.533 91.9384 101.533 91.5379 101.816 91.4513L103.186 91.0318C103.366 90.9766 103.452 90.7707 103.363 90.6042L102.691 89.3388C102.552 89.0775 102.835 88.7943 103.097 88.9331L104.362 89.6053C104.529 89.6938 104.734 89.6085 104.79 89.4282L105.209 88.0581Z" fill="#4ADE80"/>
<path d="M118.4 88.0581C118.487 87.7752 118.888 87.7752 118.974 88.0581L119.394 89.4282C119.449 89.6085 119.655 89.6938 119.821 89.6053L121.087 88.9331C121.348 88.7943 121.631 89.0775 121.492 89.3388L120.82 90.6042C120.732 90.7707 120.817 90.9766 120.997 91.0318L122.367 91.4513C122.65 91.5379 122.65 91.9384 122.367 92.025L120.997 92.4444C120.817 92.4996 120.732 92.7055 120.82 92.872L121.492 94.1374C121.631 94.3987 121.348 94.6819 121.087 94.5431L119.821 93.8709C119.655 93.7824 119.449 93.8677 119.394 94.048L118.974 95.4181C118.888 95.701 118.487 95.701 118.4 95.4181L117.981 94.048C117.926 93.8677 117.72 93.7824 117.553 93.8709L116.288 94.5431C116.027 94.6819 115.744 94.3987 115.882 94.1374L116.555 92.872C116.643 92.7055 116.558 92.4996 116.377 92.4444L115.007 92.025C114.724 91.9384 114.724 91.5379 115.007 91.4513L116.377 91.0318C116.558 90.9766 116.643 90.7707 116.555 90.6042L115.882 89.3388C115.744 89.0775 116.027 88.7943 116.288 88.9331L117.553 89.6053C117.72 89.6938 117.926 89.6085 117.981 89.4282L118.4 88.0581Z" fill="#4ADE80"/>
<path d="M130.934 88.0204C131.022 87.7416 131.417 87.7416 131.505 88.0204L131.942 89.3942C131.999 89.5714 132.201 89.6552 132.366 89.5697L133.646 88.9072C133.906 88.7727 134.185 89.0517 134.051 89.3115L133.388 90.5917C133.302 90.7568 133.386 90.9592 133.563 91.0155L134.937 91.4522C135.216 91.5409 135.216 91.9354 134.937 92.024L133.563 92.4607C133.386 92.5171 133.302 92.7194 133.388 92.8845L134.051 94.1648C134.185 94.4246 133.906 94.7036 133.646 94.5691L132.366 93.9065C132.201 93.821 131.999 93.9048 131.942 94.082L131.505 95.4558C131.417 95.7346 131.022 95.7346 130.934 95.4558L130.497 94.082C130.441 93.9048 130.238 93.821 130.073 93.9065L128.793 94.5691C128.533 94.7036 128.254 94.4246 128.389 94.1648L129.051 92.8845C129.137 92.7194 129.053 92.5171 128.876 92.4607L127.502 92.024C127.223 91.9354 127.223 91.5409 127.502 91.4522L128.876 91.0155C129.053 90.9592 129.137 90.7568 129.051 90.5917L128.389 89.3115C128.254 89.0517 128.533 88.7727 128.793 88.9072L130.073 89.5697C130.238 89.6552 130.441 89.5714 130.497 89.3942L130.934 88.0204Z" fill="#4ADE80"/>
<path d="M144.123 88.0974C144.208 87.8105 144.614 87.8105 144.699 88.0974L145.101 89.4623C145.155 89.6456 145.364 89.7323 145.532 89.6409L146.782 88.9603C147.045 88.8172 147.332 89.1045 147.189 89.3672L146.508 90.6168C146.417 90.7846 146.503 90.994 146.687 91.0481L148.052 91.4504C148.339 91.5349 148.339 91.9413 148.052 92.0259L146.687 92.4282C146.503 92.4822 146.417 92.6916 146.508 92.8594L147.189 94.109C147.332 94.3717 147.045 94.6591 146.782 94.516L145.532 93.8353C145.364 93.7439 145.155 93.8306 145.101 94.014L144.699 95.3788C144.614 95.6658 144.208 95.6658 144.123 95.3788L143.721 94.014C143.667 93.8306 143.457 93.7439 143.29 93.8353L142.04 94.516C141.777 94.6591 141.49 94.3717 141.633 94.109L142.314 92.8594C142.405 92.6916 142.318 92.4822 142.135 92.4282L140.77 92.0259C140.483 91.9413 140.483 91.5349 140.77 91.4504L142.135 91.0481C142.318 90.994 142.405 90.7846 142.314 90.6168L141.633 89.3672C141.49 89.1045 141.777 88.8172 142.04 88.9603L143.29 89.6409C143.457 89.7323 143.667 89.6456 143.721 89.4623L144.123 88.0974Z" fill="#4ADE80"/>
<defs>
<filter id="filter0_d_1077_5788" x="32" y="48.144" width="110.06" height="130.857" filterUnits="userSpaceOnUse" color-interpolation-filters="sRGB">
<feFlood flood-opacity="0" result="BackgroundImageFix"/>
<feColorMatrix in="SourceAlpha" type="matrix" values="0 0 0 0 0 0 0 0 0 0 0 0 0 0 0 0 0 0 127 0" result="hardAlpha"/>
<feOffset dx="2" dy="10"/>
<feGaussianBlur stdDeviation="10"/>
<feComposite in2="hardAlpha" operator="out"/>
<feColorMatrix type="matrix" values="0 0 0 0 0.254902 0 0 0 0 0.219608 0 0 0 0 0.498039 0 0 0 0.08 0"/>
<feBlend mode="normal" in2="BackgroundImageFix" result="effect1_dropShadow_1077_5788"/>
<feBlend mode="normal" in="SourceGraphic" in2="effect1_dropShadow_1077_5788" result="shape"/>
</filter>
<filter id="filter1_d_1077_5788" x="76.2832" y="60.5469" width="90" height="59.5137" filterUnits="userSpaceOnUse" color-interpolation-filters="sRGB">
<feFlood flood-opacity="0" result="BackgroundImageFix"/>
<feColorMatrix in="SourceAlpha" type="matrix" values="0 0 0 0 0 0 0 0 0 0 0 0 0 0 0 0 0 0 127 0" result="hardAlpha"/>
<feOffset dx="-4" dy="-4"/>
<feGaussianBlur stdDeviation="7"/>
<feComposite in2="hardAlpha" operator="out"/>
<feColorMatrix type="matrix" values="0 0 0 0 0.254902 0 0 0 0 0.219608 0 0 0 0 0.498039 0 0 0 0.12 0"/>
<feBlend mode="normal" in2="BackgroundImageFix" result="effect1_dropShadow_1077_5788"/>
<feBlend mode="normal" in="SourceGraphic" in2="effect1_dropShadow_1077_5788" result="shape"/>
</filter>
<linearGradient id="paint0_linear_1077_5788" x1="85.0299" y1="73.5723" x2="85.0299" y2="149.858" gradientUnits="userSpaceOnUse">
<stop stop-color="#14E0F3"/>
<stop offset="1" stop-color="#0FB8C9"/>
</linearGradient>
<linearGradient id="paint1_linear_1077_5788" x1="69.5763" y1="96.8971" x2="70.2099" y2="102.58" gradientUnits="userSpaceOnUse">
<stop stop-color="#14E0F3"/>
<stop offset="1" stop-color="#0FB8C9"/>
</linearGradient>
<linearGradient id="paint2_linear_1077_5788" x1="69.8545" y1="99.1676" x2="69.9812" y2="100.304" gradientUnits="userSpaceOnUse">
<stop stop-color="#14E0F3"/>
<stop offset="1" stop-color="#0FB8C9"/>
</linearGradient>
<linearGradient id="paint3_linear_1077_5788" x1="68.9513" y1="91.7894" x2="69.5215" y2="96.9037" gradientUnits="userSpaceOnUse">
<stop stop-color="#14E0F3"/>
<stop offset="1" stop-color="#0FB8C9"/>
</linearGradient>
<clipPath id="clip0_1077_5788">
<rect width="16" height="16" fill="white" transform="translate(7.4082 138.547) rotate(22.5058)"/>
</clipPath>
<clipPath id="clip1_1077_5788">
<rect width="10.2813" height="10.2813" fill="white" transform="translate(181.219 58.5469) rotate(22.5058)"/>
</clipPath>
<clipPath id="clip2_1077_5788">
<rect width="12" height="12" fill="white" transform="translate(4.87695 0.546875) rotate(22.5058)"/>
</clipPath>
<clipPath id="clip3_1077_5788">
<rect width="14.3625" height="13.7233" fill="white" transform="matrix(0.993842 -0.110809 0.121524 0.992588 61.6758 91.4497)"/>
</clipPath>
</defs>
</svg>
