<svg width="20" height="21" viewBox="0 0 20 21" fill="none" xmlns="http://www.w3.org/2000/svg">
<path d="M9.98706 2.22941C12.5443 2.22941 14.6023 4.24213 14.6023 6.72648V8.00382C16.0375 8.45179 17.0835 9.75095 17.0837 11.3027V15.4169C17.0837 17.3381 15.4907 18.8963 13.5271 18.8964H6.47437C4.50983 18.8964 2.91675 17.3381 2.91675 15.4169V11.3027C2.91694 9.75095 3.96388 8.45179 5.39819 8.00382V6.72648C5.40666 4.24223 7.4638 2.22958 9.98706 2.22941ZM9.99585 11.7167C9.58951 11.7167 9.2597 12.0391 9.25952 12.4364V14.2753C9.25959 14.681 9.58943 15.0038 9.99585 15.0038C10.4107 15.0038 10.7409 14.681 10.741 14.2753V12.4364C10.7408 12.0391 10.4107 11.7167 9.99585 11.7167ZM10.0046 3.67863C8.28567 3.67863 6.88811 5.03708 6.87964 6.70988V7.82413H13.1208V6.72648C13.1208 5.04551 11.7235 3.6788 10.0046 3.67863Z" fill="#9E9E9E"/>
</svg>
