<svg width="18" height="21" viewBox="0 0 18 21" fill="none" xmlns="http://www.w3.org/2000/svg">
<path d="M8.34084 0.520029C8.73328 0.380918 9.17085 0.378032 9.57034 0.513193L16.208 2.73976C16.951 2.98785 17.454 3.67117 17.458 4.43604L17.5 11.0767C17.513 13.0897 16.7785 15.0422 15.4346 16.5718C14.8165 17.2737 14.0243 17.8773 13.0127 18.4165L9.44534 20.3237C9.33371 20.3825 9.21063 20.4125 9.08694 20.4136C8.96329 20.4146 8.83916 20.3853 8.72854 20.3276L5.12698 18.4644C4.10413 17.9339 3.30487 17.3393 2.68069 16.647C1.31457 15.1329 0.555116 13.1894 0.542017 11.1733L0.500024 4.53761C0.495998 3.77175 0.989594 3.08457 1.72854 2.82667L8.34084 0.520029ZM12.7451 7.63233C12.4482 7.34698 11.9697 7.34893 11.6768 7.63819L8.30862 10.9585L6.92874 9.63233C6.63173 9.34723 6.15426 9.34997 5.86038 9.63917C5.56742 9.92845 5.5712 10.3939 5.86819 10.6792L7.78323 12.523C7.93222 12.6661 8.12607 12.7359 8.31936 12.7339C8.51246 12.7329 8.70469 12.661 8.85159 12.5161L12.751 8.6714C13.0437 8.38217 13.0408 7.91764 12.7451 7.63233Z" fill="url(#paint0_linear_83_2451)"/>
<defs>
<linearGradient id="paint0_linear_83_2451" x1="3.04702" y1="3.41023" x2="18.158" y2="16.2546" gradientUnits="userSpaceOnUse">
<stop stop-color="#01B98F"/>
<stop offset="1" stop-color="#019B77"/>
</linearGradient>
</defs>
</svg>
