<svg width="136" height="131" viewBox="0 0 136 131" fill="none" xmlns="http://www.w3.org/2000/svg">
<rect x="0.766602" y="0.408447" width="130.467" height="130.467" rx="65.2335" fill="white"/>
<path d="M62.3044 109.513C56.7793 109.513 51.7862 108.183 47.3252 105.523C42.8641 102.822 39.3239 99.2408 36.7046 94.7797C34.1262 90.3187 32.837 85.4279 32.837 80.1074H47.8163C47.8163 82.7677 48.4711 85.2028 49.7808 87.4129C51.0904 89.582 52.8298 91.3214 54.999 92.6311C57.209 93.8998 59.6442 94.5342 62.3044 94.5342C64.9647 94.5342 67.3794 93.8998 69.5485 92.6311C71.7176 91.3214 73.457 89.582 74.7667 87.4129C76.0764 85.2028 76.7312 82.7677 76.7312 80.1074C76.7312 77.4472 76.1582 75.012 75.0123 72.8019C73.9072 70.551 72.086 68.7706 69.5485 67.461C67.052 66.1104 63.7369 65.4351 59.6033 65.4351H37.5027L46.5885 21.9706H88.8251V36.9499H58.7438L55.9812 50.4558L62.0589 50.5172C67.8705 50.7218 73.0068 52.1338 77.4679 54.7531C81.9289 57.3725 85.4077 60.8922 87.9043 65.3123C90.4417 69.6915 91.7105 74.6232 91.7105 80.1074C91.7105 84.1183 90.9533 87.904 89.439 91.4646C87.9247 95.0253 85.817 98.1562 83.1158 100.857C80.4146 103.559 77.2837 105.687 73.7231 107.242C70.2034 108.756 66.3971 109.513 62.3044 109.513Z" fill="#01AE87"/>
<path d="M135.076 21.9611H87.4304V36.9382H135.076V21.9611Z" fill="#01AE87"/>
</svg>
