<svg width="18" height="21" viewBox="0 0 18 21" fill="none" xmlns="http://www.w3.org/2000/svg">
<path d="M15.8088 7.43473C15.3573 7.43473 14.7592 7.42473 14.0146 7.42473C12.1987 7.42473 10.7055 5.92173 10.7055 4.08873V0.872727C10.7055 0.619727 10.5036 0.413727 10.253 0.413727H4.96363C2.49517 0.413727 0.5 2.43973 0.5 4.92273V15.6977C0.5 18.3027 2.59022 20.4137 5.16958 20.4137H13.0463C15.5058 20.4137 17.5 18.4007 17.5 15.9157V7.88473C17.5 7.63073 17.299 7.42573 17.0475 7.42673C16.6247 7.42973 16.1177 7.43473 15.8088 7.43473Z" fill="url(#paint0_linear_71_617)"/>
<path d="M13.0842 0.98102C12.7852 0.67002 12.2632 0.88402 12.2632 1.31502V3.95202C12.2632 5.05802 13.1742 5.96802 14.2802 5.96802C14.9772 5.97602 15.9452 5.97802 16.7672 5.97602C17.1882 5.97502 17.4022 5.47202 17.1102 5.16802C16.0552 4.07102 14.1662 2.10502 13.0842 0.98102Z" fill="url(#paint1_linear_71_617)"/>
<path d="M11.4185 13.3065C11.8293 13.3067 12.1626 13.6407 12.1626 14.0516C12.1626 14.4624 11.8293 14.7955 11.4185 14.7957H5.97412C5.56314 14.7957 5.23001 14.4626 5.22998 14.0516C5.22998 13.6406 5.56312 13.3065 5.97412 13.3065H11.4185ZM9.35889 8.31233C9.76989 8.31233 10.104 8.64645 10.104 9.05745C10.1039 9.4684 9.76985 9.80159 9.35889 9.80159H5.97412C5.56316 9.80159 5.23004 9.4684 5.22998 9.05745C5.22998 8.64645 5.56312 8.31233 5.97412 8.31233H9.35889Z" fill="#E9F5F2"/>
<defs>
<linearGradient id="paint0_linear_71_617" x1="3.04702" y1="3.41023" x2="18.158" y2="16.2546" gradientUnits="userSpaceOnUse">
<stop stop-color="#01B98F"/>
<stop offset="1" stop-color="#019B77"/>
</linearGradient>
<linearGradient id="paint1_linear_71_617" x1="13.0096" y1="1.60415" x2="16.9449" y2="5.41593" gradientUnits="userSpaceOnUse">
<stop stop-color="#01B98F"/>
<stop offset="1" stop-color="#019B77"/>
</linearGradient>
</defs>
</svg>
