<svg width="20" height="17" viewBox="0 0 20 17" fill="none" xmlns="http://www.w3.org/2000/svg">
<path d="M17.633 4.90545C17.646 5.08045 17.646 5.25445 17.646 5.42845C17.646 10.7534 13.593 16.8894 6.186 16.8894C3.904 16.8894 1.784 16.2284 0 15.0804C0.324 15.1174 0.636 15.1304 0.973 15.1304C2.78599 15.1348 4.54765 14.5286 5.974 13.4094C5.13342 13.3942 4.31858 13.1169 3.64324 12.6162C2.9679 12.1155 2.46578 11.4163 2.207 10.6164C2.456 10.6534 2.706 10.6784 2.968 10.6784C3.329 10.6784 3.692 10.6284 4.029 10.5414C3.11676 10.3573 2.29647 9.86279 1.70762 9.14213C1.11876 8.42147 0.797693 7.51909 0.799 6.58845V6.53844C1.336 6.83744 1.959 7.02444 2.619 7.04944C2.06609 6.68203 1.61272 6.18347 1.29934 5.59824C0.98596 5.013 0.822313 4.3593 0.823 3.69545C0.823 2.94744 1.022 2.26145 1.371 1.66344C2.38314 2.90846 3.6455 3.92701 5.07634 4.6531C6.50717 5.3792 8.07456 5.79666 9.677 5.87845C9.615 5.57844 9.577 5.26744 9.577 4.95544C9.57674 4.42641 9.68075 3.9025 9.88308 3.41368C10.0854 2.92487 10.3821 2.48072 10.7562 2.10663C11.1303 1.73255 11.5744 1.43586 12.0632 1.23352C12.5521 1.03119 13.076 0.927182 13.605 0.927445C14.765 0.927445 15.812 1.41344 16.548 2.19944C17.4498 2.02506 18.3145 1.69587 19.104 1.22644C18.8034 2.15726 18.1738 2.94655 17.333 3.44644C18.1328 3.35522 18.9144 3.1449 19.652 2.82244C19.1011 3.62554 18.4185 4.32979 17.633 4.90545Z" fill="#00AB83"/>
</svg>
