<svg width="65" height="65" viewBox="0 0 65 65" fill="none" xmlns="http://www.w3.org/2000/svg">
<path opacity="0.14" fill-rule="evenodd" clip-rule="evenodd" d="M8.125 24.9168V45.5002C8.125 48.5338 8.125 50.0506 8.71538 51.2093C9.2347 52.2285 10.0633 53.0571 11.0826 53.5765C12.2412 54.1668 13.758 54.1668 16.7917 54.1668H48.2083C51.242 54.1668 52.7588 54.1668 53.9174 53.5765C54.9367 53.0571 55.7653 52.2285 56.2846 51.2093C56.875 50.0506 56.875 48.5338 56.875 45.5002V24.9168C56.875 21.8832 56.875 20.3664 56.2846 19.2077C55.7653 18.1885 54.9367 17.3599 53.9174 16.8405C52.7588 16.2502 51.242 16.2502 48.2083 16.2502H45.352C45.0191 16.2502 44.8526 16.2502 44.699 16.2326C43.8976 16.1408 43.1788 15.6966 42.7383 15.0208C42.6539 14.8913 42.5795 14.7424 42.4306 14.4446C42.1328 13.8491 41.9838 13.5512 41.815 13.2922C40.934 11.9407 39.4965 11.0523 37.8937 10.8687C37.5865 10.8335 37.2536 10.8335 36.5877 10.8335H28.4123C27.7464 10.8335 27.4135 10.8335 27.1063 10.8687C25.5035 11.0523 24.066 11.9407 23.185 13.2922C23.0161 13.5512 22.8672 13.849 22.5694 14.4446C22.4206 14.7424 22.3461 14.8913 22.2617 15.0208C21.8212 15.6966 21.1024 16.1408 20.301 16.2326C20.1474 16.2502 19.9809 16.2502 19.648 16.2502H16.7917C13.758 16.2502 12.2412 16.2502 11.0826 16.8405C10.0633 17.3599 9.2347 18.1885 8.71538 19.2077C8.125 20.3664 8.125 21.8832 8.125 24.9168ZM32.5 43.3335C36.9873 43.3335 40.625 39.6958 40.625 35.2085C40.625 30.7212 36.9873 27.0835 32.5 27.0835C28.0127 27.0835 24.375 30.7212 24.375 35.2085C24.375 39.6958 28.0127 43.3335 32.5 43.3335Z" fill="#12CFE1"/>
<path d="M32.5 43.3335C36.9873 43.3335 40.625 39.6958 40.625 35.2085C40.625 30.7212 36.9873 27.0835 32.5 27.0835C28.0127 27.0835 24.375 30.7212 24.375 35.2085C24.375 39.6958 28.0127 43.3335 32.5 43.3335Z" stroke="#12CFE1" stroke-width="2" stroke-linecap="round" stroke-linejoin="round"/>
<path d="M8.125 45.5002V24.9168C8.125 21.8832 8.125 20.3664 8.71538 19.2077C9.2347 18.1885 10.0633 17.3599 11.0826 16.8405C12.2412 16.2502 13.758 16.2502 16.7917 16.2502H19.648C19.9809 16.2502 20.1474 16.2502 20.301 16.2326C21.1024 16.1408 21.8212 15.6966 22.2617 15.0208C22.3461 14.8913 22.4206 14.7424 22.5694 14.4446C22.8672 13.849 23.0161 13.5512 23.185 13.2922C24.066 11.9407 25.5035 11.0523 27.1063 10.8687C27.4135 10.8335 27.7464 10.8335 28.4123 10.8335H36.5877C37.2536 10.8335 37.5865 10.8335 37.8937 10.8687C39.4965 11.0523 40.934 11.9407 41.815 13.2922C41.9838 13.5512 42.1328 13.8491 42.4306 14.4446C42.5795 14.7424 42.6539 14.8913 42.7383 15.0208C43.1788 15.6966 43.8976 16.1408 44.699 16.2326C44.8526 16.2502 45.0191 16.2502 45.352 16.2502H48.2083C51.2419 16.2502 52.7588 16.2502 53.9174 16.8405C54.9367 17.3599 55.7653 18.1885 56.2846 19.2077C56.875 20.3664 56.875 21.8832 56.875 24.9168V45.5002C56.875 48.5338 56.875 50.0506 56.2846 51.2093C55.7653 52.2285 54.9367 53.0571 53.9174 53.5765C52.7588 54.1668 51.2419 54.1668 48.2083 54.1668H16.7917C13.758 54.1668 12.2412 54.1668 11.0826 53.5765C10.0633 53.0571 9.2347 52.2285 8.71538 51.2093C8.125 50.0506 8.125 48.5338 8.125 45.5002Z" stroke="#12CFE1" stroke-width="2" stroke-linecap="round" stroke-linejoin="round"/>
</svg>
