<svg width="138" height="124" viewBox="0 0 138 124" fill="none" xmlns="http://www.w3.org/2000/svg">
<path d="M135.198 98.8147L82.9823 8.39803C81.5651 5.94374 79.5269 3.90571 77.0725 2.48875C74.6181 1.07179 71.834 0.325821 69 0.325821C66.1659 0.325821 63.3818 1.07179 60.9274 2.48875C58.473 3.90571 56.4348 5.94374 55.0177 8.39803L2.80205 98.8147C1.38443 101.27 0.638368 104.055 0.638916 106.891C0.639465 109.726 1.3866 112.511 2.80517 114.966C4.22375 117.421 6.26374 119.459 8.71996 120.875C11.1762 122.291 13.962 123.036 16.7973 123.033H121.203C124.037 123.033 126.821 122.287 129.275 120.87C131.73 119.453 133.768 117.415 135.185 114.96C136.602 112.506 137.348 109.722 137.348 106.888C137.348 104.053 136.602 101.269 135.185 98.8147H135.198Z" fill="url(#paint0_linear_11_2369)"/>
<path d="M69.0001 84.2834C70.6921 84.2911 72.3258 83.666 73.5805 82.5308C74.8352 81.3956 75.6202 79.8324 75.7813 78.148L79.5917 40.0439C79.7273 38.6954 79.5783 37.3335 79.1546 36.0462C78.7309 34.7589 78.0417 33.5748 77.1318 32.5705C76.2218 31.5662 75.1112 30.764 73.8718 30.2157C72.6324 29.6675 71.2918 29.3853 69.9365 29.3876H68.0636C66.7097 29.3876 65.3708 29.6714 64.1334 30.2206C62.8959 30.7699 61.7873 31.5724 60.8791 32.5765C59.9708 33.5806 59.2832 34.7639 58.8604 36.05C58.4376 37.3362 58.2891 38.6968 58.4245 40.0439L62.235 78.148C62.3958 79.8296 63.1785 81.3905 64.4298 82.5254C65.6811 83.6602 67.3108 84.2871 69.0001 84.2834Z" fill="url(#paint1_linear_11_2369)"/>
<path d="M69.0001 110.117C75.2421 110.117 80.3022 105.057 80.3022 98.8147C80.3022 92.5727 75.2421 87.5126 69.0001 87.5126C62.7581 87.5126 57.698 92.5727 57.698 98.8147C57.698 105.057 62.7581 110.117 69.0001 110.117Z" fill="url(#paint2_linear_11_2369)"/>
<defs>
<linearGradient id="paint0_linear_11_2369" x1="30.6827" y1="53.0768" x2="127.212" y2="121.06" gradientUnits="userSpaceOnUse">
<stop stop-color="#FED200"/>
<stop offset="1" stop-color="#F59815"/>
</linearGradient>
<linearGradient id="paint1_linear_11_2369" x1="57.1103" y1="37.7447" x2="80.4636" y2="71.7381" gradientUnits="userSpaceOnUse">
<stop stop-color="#3E4154"/>
<stop offset="1" stop-color="#1B2129"/>
</linearGradient>
<linearGradient id="paint2_linear_11_2369" x1="61.8281" y1="91.6427" x2="75.7038" y2="105.518" gradientUnits="userSpaceOnUse">
<stop stop-color="#3E4154"/>
<stop offset="1" stop-color="#1B2129"/>
</linearGradient>
</defs>
</svg>
