<svg width="19" height="20" viewBox="0 0 19 20" fill="none" xmlns="http://www.w3.org/2000/svg">
<path fill-rule="evenodd" clip-rule="evenodd" d="M15.403 3.54145C14.5714 2.70433 13.5819 2.04056 12.4919 1.58859C11.4019 1.13663 10.233 0.905447 9.053 0.908446C4.105 0.908446 0.077 4.93545 0.075 9.88545C0.075 11.4674 0.488 13.0114 1.273 14.3734L0 19.0244L4.759 17.7754C6.07539 18.492 7.5502 18.8678 9.049 18.8684H9.053C14 18.8684 18.028 14.8414 18.03 9.89145C18.0334 8.71193 17.803 7.54344 17.3521 6.45351C16.9012 5.36357 16.2387 4.37382 15.403 3.54145ZM9.053 17.3534H9.05C7.71352 17.3536 6.40163 16.994 5.252 16.3124L4.98 16.1504L2.156 16.8914L2.909 14.1384L2.732 13.8564C1.98479 12.6669 1.58923 11.2902 1.591 9.88545C1.593 5.77145 4.94 2.42445 9.056 2.42445C10.0363 2.42227 11.0072 2.61453 11.9127 2.9901C12.8181 3.36567 13.6401 3.91709 14.331 4.61245C15.0256 5.30449 15.5762 6.12734 15.9509 7.03344C16.3256 7.93955 16.517 8.91093 16.514 9.89145C16.512 14.0054 13.165 17.3534 9.053 17.3534ZM13.146 11.7644C12.921 11.6514 11.819 11.1094 11.613 11.0344C11.408 10.9594 11.259 10.9224 11.109 11.1464C10.959 11.3704 10.529 11.8754 10.398 12.0254C10.267 12.1754 10.136 12.1934 9.912 12.0814C9.688 11.9694 8.965 11.7324 8.108 10.9684C7.441 10.3734 6.991 9.63945 6.86 9.41444C6.729 9.18944 6.846 9.06845 6.959 8.95645C7.06 8.85645 7.183 8.69445 7.295 8.56345C7.407 8.43245 7.444 8.33945 7.519 8.18945C7.594 8.03945 7.557 7.90844 7.5 7.79644C7.444 7.68344 6.995 6.57945 6.808 6.13045C6.627 5.69545 6.442 5.75345 6.304 5.74745C6.16108 5.7416 6.01804 5.73893 5.875 5.73945C5.76126 5.74234 5.64934 5.76871 5.54626 5.81689C5.44318 5.86508 5.35117 5.93403 5.276 6.01945C5.07 6.24445 4.491 6.78645 4.491 7.89045C4.491 8.99445 5.295 10.0614 5.407 10.2114C5.519 10.3614 6.989 12.6264 9.239 13.5984C9.775 13.8294 10.193 13.9674 10.518 14.0714C11.055 14.2424 11.544 14.2174 11.931 14.1604C12.362 14.0964 13.258 13.6184 13.445 13.0944C13.632 12.5704 13.632 12.1214 13.576 12.0274C13.52 11.9334 13.369 11.8764 13.146 11.7644Z" fill="#00AB83"/>
</svg>
